<svg width="34" height="34" viewBox="0 0 34 34" fill="none" xmlns="http://www.w3.org/2000/svg">
<path d="M21.25 11.3333H21.2642M17.7083 29.75H8.5C7.37283 29.75 6.29183 29.3022 5.4948 28.5052C4.69777 27.7082 4.25 26.6272 4.25 25.5V8.5C4.25 7.37283 4.69777 6.29183 5.4948 5.4948C6.29183 4.69777 7.37283 4.25 8.5 4.25H25.5C26.6272 4.25 27.7082 4.69777 28.5052 5.4948C29.3022 6.29183 29.75 7.37283 29.75 8.5V17.7083" stroke="#D9D9D9" stroke-width="2" stroke-linecap="round" stroke-linejoin="round"/>
<path d="M4.25 22.6669L11.3333 15.5836C12.648 14.3185 14.2687 14.3185 15.5833 15.5836L21.25 21.2502" stroke="#D9D9D9" stroke-width="2" stroke-linecap="round" stroke-linejoin="round"/>
<path d="M19.833 19.8332L21.2497 18.4165C22.1988 17.5042 23.3038 17.2492 24.3408 17.6515M22.6663 26.9165H31.1663M26.9163 22.6665V31.1665" stroke="#D9D9D9" stroke-width="2" stroke-linecap="round" stroke-linejoin="round"/>
</svg>
