<svg width="78" height="78" viewBox="0 0 78 78" fill="none" xmlns="http://www.w3.org/2000/svg">
<g filter="url(#filter0_d_3561_20859)">
<rect x="5.7002" y="2.7002" width="66" height="66" rx="33" fill="#FC6340"/>
<path d="M32.4002 32.5506C33.9517 32.5506 35.4397 31.9342 36.5368 30.8372C37.6339 29.7401 38.2502 28.2521 38.2502 26.7006C38.2502 25.1491 37.6339 23.6611 36.5368 22.564C35.4397 21.4669 33.9517 20.8506 32.4002 20.8506C30.8487 20.8506 29.3607 21.4669 28.2636 22.564C27.1665 23.6611 26.5502 25.1491 26.5502 26.7006C26.5502 28.2521 27.1665 29.7401 28.2636 30.8372C29.3607 31.9342 30.8487 32.5506 32.4002 32.5506ZM50.8502 28.0506C50.8502 29.2441 50.3761 30.3887 49.5322 31.2326C48.6883 32.0765 47.5437 32.5506 46.3502 32.5506C45.1567 32.5506 44.0121 32.0765 43.1682 31.2326C42.3243 30.3887 41.8502 29.2441 41.8502 28.0506C41.8502 26.8571 42.3243 25.7125 43.1682 24.8686C44.0121 24.0247 45.1567 23.5506 46.3502 23.5506C47.5437 23.5506 48.6883 24.0247 49.5322 24.8686C50.3761 25.7125 50.8502 26.8571 50.8502 28.0506ZM36.4502 42.4506C36.4502 39.3834 37.8452 36.6402 40.0376 34.824C39.4932 34.5133 38.877 34.3501 38.2502 34.3506H26.5502C25.5954 34.3506 24.6797 34.7299 24.0046 35.405C23.3295 36.0801 22.9502 36.9958 22.9502 37.9506C22.9502 37.9506 22.9502 45.1506 32.4002 45.1506C34.1156 45.1506 35.5196 44.913 36.668 44.526C36.5225 43.8438 36.4495 43.1481 36.4502 42.4506ZM54.4502 42.4506C54.4502 44.5988 53.5968 46.6591 52.0778 48.1782C50.5587 49.6972 48.4984 50.5506 46.3502 50.5506C44.2019 50.5506 42.1417 49.6972 40.6226 48.1782C39.1036 46.6591 38.2502 44.5988 38.2502 42.4506C38.2502 40.3023 39.1036 38.2421 40.6226 36.723C42.1417 35.204 44.2019 34.3506 46.3502 34.3506C48.4984 34.3506 50.5587 35.204 52.0778 36.723C53.5968 38.2421 54.4502 40.3023 54.4502 42.4506ZM47.2502 38.8506C47.2502 38.6119 47.1554 38.383 46.9866 38.2142C46.8178 38.0454 46.5889 37.9506 46.3502 37.9506C46.1115 37.9506 45.8826 38.0454 45.7138 38.2142C45.545 38.383 45.4502 38.6119 45.4502 38.8506V41.5506H42.7502C42.5115 41.5506 42.2826 41.6454 42.1138 41.8142C41.945 41.983 41.8502 42.2119 41.8502 42.4506C41.8502 42.6893 41.945 42.9182 42.1138 43.087C42.2826 43.2558 42.5115 43.3506 42.7502 43.3506H45.4502V46.0506C45.4502 46.2893 45.545 46.5182 45.7138 46.687C45.8826 46.8558 46.1115 46.9506 46.3502 46.9506C46.5889 46.9506 46.8178 46.8558 46.9866 46.687C47.1554 46.5182 47.2502 46.2893 47.2502 46.0506V43.3506H49.9502C50.1889 43.3506 50.4178 43.2558 50.5866 43.087C50.7554 42.9182 50.8502 42.6893 50.8502 42.4506C50.8502 42.2119 50.7554 41.983 50.5866 41.8142C50.4178 41.6454 50.1889 41.5506 49.9502 41.5506H47.2502V38.8506Z" fill="white"/>
</g>
<defs>
<filter id="filter0_d_3561_20859" x="0.000195503" y="0.000195503" width="77.4" height="77.4" filterUnits="userSpaceOnUse" color-interpolation-filters="sRGB">
<feFlood flood-opacity="0" result="BackgroundImageFix"/>
<feColorMatrix in="SourceAlpha" type="matrix" values="0 0 0 0 0 0 0 0 0 0 0 0 0 0 0 0 0 0 127 0" result="hardAlpha"/>
<feOffset dy="3"/>
<feGaussianBlur stdDeviation="2.85"/>
<feComposite in2="hardAlpha" operator="out"/>
<feColorMatrix type="matrix" values="0 0 0 0 0.576456 0 0 0 0 0.0807853 0 0 0 0 0.0807853 0 0 0 0.07 0"/>
<feBlend mode="normal" in2="BackgroundImageFix" result="effect1_dropShadow_3561_20859"/>
<feBlend mode="normal" in="SourceGraphic" in2="effect1_dropShadow_3561_20859" result="shape"/>
</filter>
</defs>
</svg>
