<svg width="77" height="77" viewBox="0 0 77 77" fill="none" xmlns="http://www.w3.org/2000/svg">
<path d="M38.5004 70.5837C42.7144 70.5889 46.8879 69.7614 50.7811 68.1487C54.6743 66.536 58.2105 64.17 61.1865 61.1865C64.17 58.2105 66.536 54.6743 68.1487 50.7811C69.7614 46.8879 70.5889 42.7144 70.5837 38.5004C70.5889 34.2864 69.7614 30.1129 68.1487 26.2196C66.536 22.3264 64.17 18.7902 61.1865 15.8142C58.2105 12.8307 54.6743 10.4647 50.7811 8.85201C46.8879 7.23933 42.7144 6.41182 38.5004 6.41702C34.2864 6.41182 30.1129 7.23933 26.2196 8.85201C22.3264 10.4647 18.7902 12.8307 15.8142 15.8142C12.8307 18.7902 10.4647 22.3264 8.85201 26.2196C7.23933 30.1129 6.41182 34.2864 6.41702 38.5004C6.41182 42.7144 7.23933 46.8879 8.85201 50.7811C10.4647 54.6743 12.8307 58.2105 15.8142 61.1865C18.7902 64.17 22.3264 66.536 26.2196 68.1487C30.1129 69.7614 34.2864 70.5889 38.5004 70.5837Z" stroke="#FC6340" stroke-width="5" stroke-linejoin="round"/>
<path d="M25.667 38.5L35.292 48.125L54.542 28.875" stroke="#FC6340" stroke-width="5" stroke-linecap="round" stroke-linejoin="round"/>
</svg>
