<svg width="47" height="47" viewBox="0 0 47 47" fill="none" xmlns="http://www.w3.org/2000/svg">
<g filter="url(#filter0_dd_3663_22881)">
<rect x="4.2998" y="2.2998" width="36" height="36" rx="18" fill="#FEE9D8"/>
<path d="M29.3709 15.0734C29.6155 14.8288 29.7529 14.497 29.7529 14.1511C29.7529 13.8052 29.6155 13.4734 29.3709 13.2288C29.1263 12.9842 28.7945 12.8467 28.4486 12.8467C28.1026 12.8467 27.7709 12.9842 27.5262 13.2288L22.2998 18.4552L17.0734 13.2288C16.8288 12.9842 16.497 12.8467 16.151 12.8467C15.8051 12.8467 15.4733 12.9842 15.2287 13.2288C14.9841 13.4734 14.8467 13.8052 14.8467 14.1511C14.8467 14.497 14.9841 14.8288 15.2287 15.0734L20.4552 20.2998L15.2287 25.5263C14.9841 25.7709 14.8467 26.1027 14.8467 26.4486C14.8467 26.7945 14.9841 27.1263 15.2287 27.3709C15.4733 27.6155 15.8051 27.753 16.151 27.753C16.497 27.753 16.8288 27.6155 17.0734 27.3709L22.2998 22.1445L27.5262 27.3709C27.7709 27.6155 28.1026 27.753 28.4486 27.753C28.7945 27.753 29.1263 27.6155 29.3709 27.3709C29.6155 27.1263 29.7529 26.7945 29.7529 26.4486C29.7529 26.1027 29.6155 25.7709 29.3709 25.5263L24.1444 20.2998L29.3709 15.0734Z" fill="#931515"/>
</g>
<defs>
<filter id="filter0_dd_3663_22881" x="-0.000195503" y="-0.000195503" width="46.3" height="46.3" filterUnits="userSpaceOnUse" color-interpolation-filters="sRGB">
<feFlood flood-opacity="0" result="BackgroundImageFix"/>
<feColorMatrix in="SourceAlpha" type="matrix" values="0 0 0 0 0 0 0 0 0 0 0 0 0 0 0 0 0 0 127 0" result="hardAlpha"/>
<feOffset dx="2" dy="4"/>
<feGaussianBlur stdDeviation="2"/>
<feComposite in2="hardAlpha" operator="out"/>
<feColorMatrix type="matrix" values="0 0 0 0 0 0 0 0 0 0 0 0 0 0 0 0 0 0 0.04 0"/>
<feBlend mode="normal" in2="BackgroundImageFix" result="effect1_dropShadow_3663_22881"/>
<feColorMatrix in="SourceAlpha" type="matrix" values="0 0 0 0 0 0 0 0 0 0 0 0 0 0 0 0 0 0 127 0" result="hardAlpha"/>
<feOffset dy="2"/>
<feGaussianBlur stdDeviation="2.15"/>
<feComposite in2="hardAlpha" operator="out"/>
<feColorMatrix type="matrix" values="0 0 0 0 0 0 0 0 0 0 0 0 0 0 0 0 0 0 0.08 0"/>
<feBlend mode="normal" in2="effect1_dropShadow_3663_22881" result="effect2_dropShadow_3663_22881"/>
<feBlend mode="normal" in="SourceGraphic" in2="effect2_dropShadow_3663_22881" result="shape"/>
</filter>
</defs>
</svg>
