<svg width="60" height="60" viewBox="0 0 60 60" fill="none" xmlns="http://www.w3.org/2000/svg">
<g filter="url(#filter0_d_3747_15089)">
<rect x="4.90039" y="2.90039" width="50" height="50" rx="25" fill="white"/>
<rect x="5.40039" y="3.40039" width="49" height="49" rx="24.5" stroke="#F5F5F5"/>
<path d="M41.6787 18.8225H35.3476V17.621C35.3425 16.7703 35.0031 15.9557 34.4026 15.3532C34.1035 15.053 33.7479 14.8149 33.3563 14.6528C32.9648 14.4906 32.545 14.4075 32.1212 14.4082H27.7205C27.2967 14.4075 26.8769 14.4906 26.4854 14.6528C26.0938 14.8149 25.7383 15.053 25.4391 15.3532C24.8435 15.9579 24.5091 16.7722 24.5077 17.621V18.8225H18.1765C17.908 18.8225 17.6505 18.9291 17.4606 19.119C17.2707 19.3089 17.1641 19.5664 17.1641 19.8349C17.1641 20.1034 17.2707 20.3609 17.4606 20.5508C17.6505 20.7407 17.908 20.8474 18.1765 20.8474H20.0934V36.7225C20.0879 37.3377 20.2044 37.948 20.4361 38.518C20.6678 39.0879 21.0101 39.6064 21.4433 40.0433C22.3266 40.9087 23.514 41.3934 24.7506 41.3932H35.0371C36.2737 41.3934 37.4611 40.9087 38.3444 40.0433C38.7776 39.6064 39.12 39.0879 39.3517 38.518C39.5834 37.948 39.6998 37.3377 39.6943 36.7225V20.8474H41.6247C41.8932 20.8474 42.1507 20.7407 42.3406 20.5508C42.5305 20.3609 42.6371 20.1034 42.6371 19.8349C42.6371 19.5664 42.5305 19.3089 42.3406 19.119C42.1507 18.9291 41.8932 18.8225 41.6247 18.8225H41.6787ZM26.5595 17.621C26.5596 17.4652 26.5907 17.311 26.6509 17.1673C26.7112 17.0236 26.7994 16.8933 26.9105 16.7841C27.1337 16.5634 27.4336 16.4376 27.7475 16.4331H32.1482C32.3062 16.4321 32.4628 16.4626 32.6088 16.5229C32.7548 16.5832 32.8874 16.672 32.9987 16.7841C33.2194 17.0072 33.3452 17.3072 33.3497 17.621V18.8225H26.6L26.5595 17.621ZM28.3549 34.6436C28.3549 35.0016 28.2127 35.345 27.9596 35.5981C27.7064 35.8513 27.363 35.9935 27.005 35.9935C26.647 35.9935 26.3036 35.8513 26.0505 35.5981C25.7973 35.345 25.6551 35.0016 25.6551 34.6436V27.3135C25.6551 26.9555 25.7973 26.6121 26.0505 26.3589C26.3036 26.1058 26.647 25.9636 27.005 25.9636C27.363 25.9636 27.7064 26.1058 27.9596 26.3589C28.2127 26.6121 28.3549 26.9555 28.3549 27.3135V34.6436ZM34.2406 34.6436C34.2406 35.0016 34.0984 35.345 33.8452 35.5981C33.5921 35.8513 33.2487 35.9935 32.8907 35.9935C32.5327 35.9935 32.1893 35.8513 31.9361 35.5981C31.683 35.345 31.5408 35.0016 31.5408 34.6436V27.3135C31.5408 26.9555 31.683 26.6121 31.9361 26.3589C32.1893 26.1058 32.5327 25.9636 32.8907 25.9636C33.2487 25.9636 33.5921 26.1058 33.8452 26.3589C34.0984 26.6121 34.2406 26.9555 34.2406 27.3135V34.6436Z" fill="#747474"/>
</g>
<defs>
<filter id="filter0_d_3747_15089" x="0.00039053" y="0.00039053" width="59.8" height="59.8" filterUnits="userSpaceOnUse" color-interpolation-filters="sRGB">
<feFlood flood-opacity="0" result="BackgroundImageFix"/>
<feColorMatrix in="SourceAlpha" type="matrix" values="0 0 0 0 0 0 0 0 0 0 0 0 0 0 0 0 0 0 127 0" result="hardAlpha"/>
<feOffset dy="2"/>
<feGaussianBlur stdDeviation="2.45"/>
<feComposite in2="hardAlpha" operator="out"/>
<feColorMatrix type="matrix" values="0 0 0 0 0 0 0 0 0 0 0 0 0 0 0 0 0 0 0.09 0"/>
<feBlend mode="normal" in2="BackgroundImageFix" result="effect1_dropShadow_3747_15089"/>
<feBlend mode="normal" in="SourceGraphic" in2="effect1_dropShadow_3747_15089" result="shape"/>
</filter>
</defs>
</svg>
