<svg width="62" height="62" viewBox="0 0 62 62" fill="none" xmlns="http://www.w3.org/2000/svg">
<g filter="url(#filter0_d_3592_15450)">
<rect x="5.7998" y="2.7998" width="50" height="50" rx="25" fill="#FF7252" shape-rendering="crispEdges"/>
<rect x="6.2998" y="3.2998" width="49" height="49" rx="24.5" stroke="#EB5431" shape-rendering="crispEdges"/>
<path d="M34.8857 18.3996C35.5902 17.6949 36.5458 17.2989 37.5423 17.2988C38.5388 17.2987 39.4945 17.6945 40.1992 18.399C40.9038 19.1036 41.2998 20.0592 41.2999 21.0557C41.3 22.0521 40.9042 23.0078 40.1997 23.7125L39.2641 24.6502C39.9021 25.2907 40.2598 26.1581 40.2588 27.062C40.2578 27.966 39.8982 28.8327 39.2589 29.4718L37.3868 31.3439C37.3141 31.4191 37.2273 31.4792 37.1312 31.5205C37.0352 31.5618 36.9318 31.5836 36.8273 31.5845C36.7227 31.5855 36.619 31.5656 36.5222 31.5261C36.4254 31.4865 36.3375 31.4281 36.2635 31.3542C36.1895 31.2803 36.131 31.1924 36.0913 31.0956C36.0517 30.9989 36.0317 30.8952 36.0326 30.7906C36.0335 30.686 36.0551 30.5827 36.0964 30.4866C36.1376 30.3905 36.1975 30.3036 36.2727 30.2309L38.1448 28.3577C38.4889 28.014 38.6826 27.5479 38.6836 27.0615C38.6846 26.5752 38.4928 26.1083 38.1501 25.7632L27.6522 36.2631C27.2256 36.6901 26.6887 36.99 26.1014 37.1294L21.2704 38.2791C21.1395 38.3104 21.0028 38.3076 20.8734 38.2711C20.7439 38.2345 20.6259 38.1654 20.5308 38.0703C20.4356 37.9753 20.3663 37.8574 20.3297 37.728C20.293 37.5985 20.29 37.4618 20.3212 37.331L21.472 32.4989C21.6116 31.9119 21.9119 31.3754 22.3382 30.9491L34.8857 18.3996Z" fill="white"/>
</g>
<defs>
<filter id="filter0_d_3592_15450" x="-0.000195503" y="-0.000195503" width="61.6" height="61.6" filterUnits="userSpaceOnUse" color-interpolation-filters="sRGB">
<feFlood flood-opacity="0" result="BackgroundImageFix"/>
<feColorMatrix in="SourceAlpha" type="matrix" values="0 0 0 0 0 0 0 0 0 0 0 0 0 0 0 0 0 0 127 0" result="hardAlpha"/>
<feOffset dy="3"/>
<feGaussianBlur stdDeviation="2.9"/>
<feComposite in2="hardAlpha" operator="out"/>
<feColorMatrix type="matrix" values="0 0 0 0 0 0 0 0 0 0 0 0 0 0 0 0 0 0 0.08 0"/>
<feBlend mode="normal" in2="BackgroundImageFix" result="effect1_dropShadow_3592_15450"/>
<feBlend mode="normal" in="SourceGraphic" in2="effect1_dropShadow_3592_15450" result="shape"/>
</filter>
</defs>
</svg>
