<svg width="28" height="28" viewBox="0 0 28 28" fill="none" xmlns="http://www.w3.org/2000/svg">
<path opacity="0.987" fill-rule="evenodd" clip-rule="evenodd" d="M11.918 0.121487C13.3679 -0.0404957 14.2258 -0.0404957 15.7837 0.121487C18.5413 0.529634 21.0977 1.80428 23.0831 3.7611C21.7414 5.02924 20.4174 6.3159 19.1114 7.6207C16.6103 5.50092 13.8185 5.01164 10.7361 6.15285C8.47501 7.19274 6.90049 8.8779 6.01256 11.2083C4.56157 10.1281 3.12948 9.02271 1.71694 7.89267C1.61878 7.841 1.50666 7.82208 1.39697 7.83868C3.64077 3.51246 7.14713 0.939401 11.916 0.119487" fill="#F44336"/>
<path opacity="0.997" fill-rule="evenodd" clip-rule="evenodd" d="M1.39238 7.83859C1.5057 7.82126 1.61303 7.83926 1.71435 7.89259C3.12689 9.02263 4.55898 10.128 6.00997 11.2082C5.78164 12.1163 5.63771 13.0434 5.58001 13.9779C5.62934 14.8819 5.77266 15.7691 6.00997 16.6397L1.50037 20.2293C-0.463455 16.1257 -0.499452 11.9955 1.39238 7.83859Z" fill="#FFC107"/>
<path opacity="0.999" fill-rule="evenodd" clip-rule="evenodd" d="M22.8684 24.5769C21.4642 23.3386 19.9942 22.1771 18.4647 21.0973C19.9979 20.0148 20.9285 18.5296 21.2565 16.6418H13.7432V11.4243C18.0761 11.3883 22.4071 11.425 26.736 11.5343C27.5573 15.9938 26.6087 20.0148 23.8903 23.597C23.567 23.9407 23.2246 24.2677 22.8684 24.5769Z" fill="#448AFF"/>
<path opacity="0.993" fill-rule="evenodd" clip-rule="evenodd" d="M6.0096 16.6419C7.64946 20.7175 10.6559 22.6199 15.0288 22.3493C16.2564 22.2072 17.4333 21.7784 18.4645 21.0974C19.995 22.18 21.4629 23.3399 22.8681 24.5771C20.6416 26.5778 17.8028 27.7649 14.8148 27.9447C14.136 27.999 13.4539 27.999 12.775 27.9447C7.68479 27.3448 3.92645 24.7731 1.5 20.2295L6.0096 16.6419Z" fill="#43A047"/>
</svg>
