<svg width="18" height="18" viewBox="0 0 18 18" fill="none" xmlns="http://www.w3.org/2000/svg">
<path d="M3 3V15C3 15.3978 3.15804 15.7794 3.43934 16.0607C3.72064 16.342 4.10218 16.5 4.5 16.5H13.5C13.8978 16.5 14.2794 16.342 14.5607 16.0607C14.842 15.7794 15 15.3978 15 15V6.2565C15 6.05667 14.96 5.85886 14.8825 5.67468C14.805 5.49051 14.6914 5.32368 14.5485 5.184L11.2185 1.9275C10.9383 1.65349 10.5619 1.50005 10.17 1.5H4.5C4.10218 1.5 3.72064 1.65804 3.43934 1.93934C3.15804 2.22064 3 2.60218 3 3Z" stroke="black" stroke-width="1.2" stroke-linecap="round" stroke-linejoin="round"/>
<path d="M10.5 1.5V4.5C10.5 4.89782 10.658 5.27936 10.9393 5.56066C11.2206 5.84196 11.6022 6 12 6H15" stroke="black" stroke-width="1.2" stroke-linejoin="round"/>
<path d="M4.75 8C4.75 7.90054 4.78951 7.80516 4.85983 7.73484C4.93016 7.66451 5.02554 7.625 5.125 7.625H11.875C11.9745 7.625 12.0698 7.66451 12.1402 7.73484C12.2105 7.80516 12.25 7.90054 12.25 8C12.25 8.09946 12.2105 8.19484 12.1402 8.26516C12.0698 8.33549 11.9745 8.375 11.875 8.375H5.125C5.02554 8.375 4.93016 8.33549 4.85983 8.26516C4.78951 8.19484 4.75 8.09946 4.75 8ZM4.75 9.5C4.75 9.40054 4.78951 9.30516 4.85983 9.23483C4.93016 9.16451 5.02554 9.125 5.125 9.125H11.875C11.9745 9.125 12.0698 9.16451 12.1402 9.23483C12.2105 9.30516 12.25 9.40054 12.25 9.5C12.25 9.59946 12.2105 9.69484 12.1402 9.76516C12.0698 9.83549 11.9745 9.875 11.875 9.875H5.125C5.02554 9.875 4.93016 9.83549 4.85983 9.76516C4.78951 9.69484 4.75 9.59946 4.75 9.5ZM5.125 10.625C5.02554 10.625 4.93016 10.6645 4.85983 10.7348C4.78951 10.8052 4.75 10.9005 4.75 11C4.75 11.0995 4.78951 11.1948 4.85983 11.2652C4.93016 11.3355 5.02554 11.375 5.125 11.375H9.625C9.72446 11.375 9.81984 11.3355 9.89016 11.2652C9.96049 11.1948 10 11.0995 10 11C10 10.9005 9.96049 10.8052 9.89016 10.7348C9.81984 10.6645 9.72446 10.625 9.625 10.625H5.125Z" fill="black"/>
</svg>
