<svg width="50" height="50" viewBox="0 0 50 50" fill="none" xmlns="http://www.w3.org/2000/svg">
<g filter="url(#filter0_d_4735_45050)">
<rect x="4.63965" y="2.24023" width="39.9991" height="39.9991" rx="19.9995" fill="white" shape-rendering="crispEdges"/>
<rect x="5.03964" y="2.64022" width="39.1991" height="39.1991" rx="19.5995" stroke="white" stroke-width="0.799981" shape-rendering="crispEdges"/>
<path d="M27.9077 14.7194C28.4713 14.1557 29.2358 13.8389 30.0329 13.8389C30.8301 13.8388 31.5946 14.1554 32.1584 14.719C32.7221 15.2826 33.0389 16.0471 33.0389 16.8443C33.039 17.6414 32.7224 18.406 32.1588 18.9697L31.4104 19.7198C31.9207 20.2322 32.2069 20.9261 32.2061 21.6493C32.2053 22.3724 31.9176 23.0657 31.4062 23.577L29.9085 25.0747C29.8504 25.1349 29.7809 25.1829 29.7041 25.2159C29.6272 25.249 29.5446 25.2664 29.4609 25.2672C29.3773 25.2679 29.2943 25.252 29.2169 25.2204C29.1394 25.1888 29.0691 25.142 29.0099 25.0829C28.9507 25.0238 28.9039 24.9534 28.8722 24.876C28.8405 24.7986 28.8245 24.7157 28.8252 24.632C28.8259 24.5484 28.8432 24.4657 28.8762 24.3888C28.9092 24.312 28.9571 24.2424 29.0173 24.1843L30.515 22.6858C30.7902 22.4108 30.9452 22.0379 30.946 21.6488C30.9468 21.2598 30.7933 20.8863 30.5192 20.6102L22.1211 29.0099C21.7798 29.3515 21.3502 29.5914 20.8804 29.7029L17.0157 30.6227C16.911 30.6477 16.8017 30.6455 16.6981 30.6163C16.5945 30.587 16.5002 30.5318 16.424 30.4557C16.3479 30.3796 16.2925 30.2853 16.2631 30.1818C16.2338 30.0782 16.2315 29.9689 16.2564 29.8642L17.177 25.9986C17.2887 25.5291 17.5289 25.0999 17.87 24.7588L27.9077 14.7194Z" fill="#EB5431"/>
</g>
<defs>
<filter id="filter0_d_4735_45050" x="-0.00024271" y="0.000287056" width="49.2788" height="49.2788" filterUnits="userSpaceOnUse" color-interpolation-filters="sRGB">
<feFlood flood-opacity="0" result="BackgroundImageFix"/>
<feColorMatrix in="SourceAlpha" type="matrix" values="0 0 0 0 0 0 0 0 0 0 0 0 0 0 0 0 0 0 127 0" result="hardAlpha"/>
<feOffset dy="2.39994"/>
<feGaussianBlur stdDeviation="2.31995"/>
<feComposite in2="hardAlpha" operator="out"/>
<feColorMatrix type="matrix" values="0 0 0 0 0 0 0 0 0 0 0 0 0 0 0 0 0 0 0.08 0"/>
<feBlend mode="normal" in2="BackgroundImageFix" result="effect1_dropShadow_4735_45050"/>
<feBlend mode="normal" in="SourceGraphic" in2="effect1_dropShadow_4735_45050" result="shape"/>
</filter>
</defs>
</svg>
