<svg width="44" height="44" viewBox="0 0 44 44" fill="none" xmlns="http://www.w3.org/2000/svg">
<rect width="44" height="44" rx="22" fill="#FF7252" fill-opacity="0.25"/>
<rect x="4" y="4" width="36" height="36" rx="18" fill="#FC6340"/>
<path fill-rule="evenodd" clip-rule="evenodd" d="M21.0162 35.2379C21.0162 35.2379 11.3335 27.0832 11.3335 19.0592C11.3335 16.2303 12.4573 13.5172 14.4577 11.5168C16.4581 9.51638 19.1712 8.39258 22.0002 8.39258C24.8291 8.39258 27.5422 9.51638 29.5426 11.5168C31.543 13.5172 32.6668 16.2303 32.6668 19.0592C32.6668 27.0832 22.9842 35.2379 22.9842 35.2379C22.4455 35.7339 21.5588 35.7286 21.0162 35.2379ZM22.0002 23.7259C22.613 23.7259 23.2198 23.6052 23.786 23.3707C24.3522 23.1362 24.8667 22.7924 25.3 22.3591C25.7333 21.9257 26.0771 21.4113 26.3116 20.8451C26.5461 20.2789 26.6668 19.6721 26.6668 19.0592C26.6668 18.4464 26.5461 17.8396 26.3116 17.2734C26.0771 16.7072 25.7333 16.1928 25.3 15.7594C24.8667 15.3261 24.3522 14.9823 23.786 14.7478C23.2198 14.5133 22.613 14.3926 22.0002 14.3926C20.7625 14.3926 19.5755 14.8842 18.7003 15.7594C17.8252 16.6346 17.3335 17.8216 17.3335 19.0592C17.3335 20.2969 17.8252 21.4839 18.7003 22.3591C19.5755 23.2342 20.7625 23.7259 22.0002 23.7259Z" fill="white"/>
</svg>
