<svg width="228" height="80" viewBox="0 0 228 80" fill="none" xmlns="http://www.w3.org/2000/svg">
<g clip-path="url(#clip0_2792_676)">
<path d="M107.756 43.8088C105.464 38.9613 101.09 36.2213 97.9985 37.6816C94.9068 39.1419 94.2734 44.2605 96.5809 49.108C98.8883 53.9556 103.262 56.6955 106.339 55.2352C109.43 53.7749 110.064 48.6564 107.756 43.8088ZM104.363 54.5126C102.236 55.0847 100.065 53.8352 99.4916 51.7275L97.1841 43.2669C96.611 41.1592 97.8628 38.9763 99.9742 38.4042C100.321 38.3139 100.668 38.2687 101.015 38.2687C102.764 38.2687 104.363 39.4279 104.845 41.1893L107.153 49.65C107.726 51.7576 106.474 53.9405 104.363 54.5126Z" fill="white"/>
<path d="M133.349 65.111C136.2 65.111 138.869 63.3346 140.166 62.1152C141.463 60.8957 142.986 58.9838 143.092 55.6266C143.107 55.0094 143.092 54.0911 143.288 54.061C143.484 54.0309 143.59 54.4976 143.71 55.0546C144.329 57.9601 146.153 61.1216 148.024 62.7023C149.879 64.2981 152.352 65.096 155.444 65.096C157.223 65.096 158.611 64.6293 160.481 63.7411C166.257 60.9861 166.664 55.2202 166.664 55.2202C166.83 54.2567 166.679 53.5491 167.011 53.8502C167.343 54.1513 170.118 60.5796 172.289 62.341C175.396 64.8551 177.191 65.1712 180.328 65.096C185.938 64.9605 189.015 62.8378 191.714 60.3538C195.138 57.1923 195.077 49.4693 195.077 49.4693C196.103 52.8867 199.722 56.8912 201.789 58.3816C203.87 59.8871 205.951 60.6248 208.017 60.6248C208.017 60.6248 208.47 60.7 210.702 60.6248C212.934 60.5495 212.692 65.668 212.617 66.767C212.496 68.5134 212.361 70.3651 211.199 70.7414C209.993 71.178 209.163 70.2296 208.424 69.4769C207.67 68.7392 206.931 67.5649 206.207 65.9691C205.529 64.4787 204.564 63.2593 203.312 62.3259C202.06 61.3926 200.688 60.8355 199.195 60.6699C197.686 60.4893 196.193 60.8205 194.7 61.6334C193.253 62.4163 192.167 63.5002 191.443 64.9304C190.719 66.3455 190.417 67.8811 190.538 69.522C190.659 71.1479 191.201 72.7136 192.167 74.219C193.328 75.9503 194.927 77.3504 196.978 78.4042C199.029 79.458 201.668 80 204.91 80C208.153 80 210.792 79.3225 212.873 77.9676C214.94 76.6278 216.614 74.7911 217.865 72.4727C219.117 70.1694 220.143 67.595 220.912 64.7497L226.115 45.7358C226.597 44.0497 227.035 42.2281 227.427 40.2409C227.804 38.2687 228 36.4622 228 34.8212C228 32.5179 227.321 30.6361 225.934 29.1908C224.561 27.7456 222.737 27.023 220.474 27.023C217.956 27.023 215.935 27.7606 214.397 29.2209C212.843 30.6963 212.074 32.563 212.074 34.8212C212.074 36.1761 212.33 37.3956 212.828 38.4795C213.341 39.5634 213.914 40.5119 214.578 41.3248C215.226 42.1528 215.784 42.8905 216.267 43.5679C217.383 45.0583 217.895 46.3229 217.79 47.3617C217.699 48.4005 217.187 49.7253 216.116 50.2973C214.909 50.9296 213.009 51.8479 211.018 49.8156C209.043 47.7832 209.978 44.3809 209.375 40.7226C208.771 37.0644 207.61 34.1739 205.891 31.6447C204.156 29.1155 202.06 28.408 200.054 27.9865C198.048 27.5649 192.076 27.038 189.739 27.1735C187.401 27.2939 184.641 27.2036 183.329 29.1607C182.017 31.1027 182.937 33.4212 182.937 33.4212L186.979 46.5337C186.979 46.5337 187.944 49.6048 187.823 50.8393C187.703 52.0587 186.964 52.9469 185.606 53.4738C184.158 53.9556 182.952 53.7448 181.957 52.8265C180.961 51.9082 180.132 50.478 179.453 48.551L173.813 32.006C173.179 30.079 172.817 28.9801 170.661 27.8961C168.217 26.6767 162.818 27.023 160.752 28.5435C159.636 29.3564 158.445 30.5156 159.395 34.2943C160.345 38.0881 163.045 48.4908 163.045 48.4908C163.467 49.8306 163.527 51.02 163.226 52.0286C162.909 53.0373 162.245 53.7147 161.235 54.0459C159.923 54.4373 158.867 54.1664 158.038 53.2631C157.223 52.3447 156.62 51.321 156.228 50.2221L150.15 31.72C149.532 29.8382 148.416 28.5134 146.817 27.7456C145.234 26.9778 143.469 26.9326 141.539 27.595C139.457 28.2725 138.115 29.5371 137.527 31.3888C136.924 33.2556 136.924 35.1223 137.557 36.9891L140.528 45.9616C141.493 48.7467 141.84 50.7189 141.569 51.8479C141.312 52.977 140.664 53.7147 139.653 54.0459C138.447 54.4373 137.482 54.2717 136.758 53.5792C136.034 52.8867 135.34 51.5017 134.661 49.4242L128.719 31.72C128.101 29.8382 126.985 28.5134 125.386 27.7456C123.803 26.9778 122.038 26.9326 120.108 27.595C118.027 28.2725 116.368 29.4769 116.126 31.4339C115.961 32.7588 116.609 33.3308 116.307 33.4061C115.976 33.4061 113.955 27.595 102.086 27.595C98.3154 27.595 95.0126 28.2875 92.1622 29.6575C90.9557 30.2296 89.8698 30.9371 88.8895 31.7652C88.5427 30.8468 88.045 30.0339 87.3814 29.3414C86.009 27.8961 84.1389 27.1735 81.7711 27.1735C79.4034 27.1735 77.6992 27.4897 75.6179 29.6274C73.5367 31.7651 72.1794 35.9955 71.3348 35.9052C70.4903 35.7998 71.2745 34.49 71.3952 33.933C71.8627 31.7652 70.5958 30.1091 69.6005 29.2661C68.1979 28.0918 66.5842 27.309 64.322 27.309C62.0598 27.309 60.2953 28.0015 59.0284 29.3715C57.0528 31.6297 57.5957 33.6921 57.279 33.6921C57.0377 33.6771 57.641 32.5028 55.8161 30.064C54.2929 28.0316 51.6084 27.0531 47.823 27.0531H37.3264C35.2904 27.0531 33.7219 27.6553 32.6059 28.8747C31.505 30.1091 30.947 31.7049 30.947 33.6771C30.947 35.6492 31.505 37.2751 32.6059 38.5247C33.7219 39.7742 35.7277 40.6323 37.3264 40.3914C38.9099 40.1656 40.4633 39.1268 41.6095 40.3914C43.0874 42.0474 39.86 44.9078 37.9447 45.9014C36.0143 46.8799 33.9481 47.3767 31.7312 47.3767C29.0618 47.3767 26.6186 46.895 24.4318 45.9466C22.2601 44.9831 20.5106 43.4776 19.1986 41.4452C17.8865 39.4129 17.2983 36.7934 17.2229 33.5868C16.8308 18.3214 28.2775 17.5235 30.3588 17.4482C38.2312 17.1622 36.708 21.4377 43.2081 21.3775C50.8242 21.3022 51.1107 14.6782 51.0202 12.691C50.9147 10.7189 46.8427 0.0150546 31.4748 0C27.2219 0 23.1801 0.707565 19.3645 2.13775C15.5489 3.56793 12.2008 5.69063 9.32028 8.50583C6.42466 11.321 4.16246 14.8438 2.50351 19.0591C0.829475 23.2894 0 28.1822 0 33.7674C0 39.7591 0.935044 45.1186 2.80513 49.8607C2.80513 49.8607 7.17873 64.5239 22.9086 65.096C40.6895 65.7433 42.1072 55.6266 42.1072 55.6266C42.0619 55.8374 42.258 61.4528 43.3287 62.9131C44.49 64.5088 46.3752 65.382 49.2406 65.382C51.91 65.382 53.8706 65.382 55.6804 63.2593C57.4901 61.1366 57.1584 57.8698 57.46 57.8698C57.7465 57.8999 57.2187 60.7452 59.0134 63.169C60.0992 64.6293 62.0296 65.1261 64.3069 65.1261C66.5842 65.1261 68.3035 64.4787 69.51 63.169C70.7165 61.8743 71.3198 60.2333 71.3198 58.2612C71.3198 58.2612 70.6863 52.8265 71.742 46.6993C73.0843 38.8709 79.4788 43.3421 82.48 43.0109C83.777 42.8754 83.7619 42.4238 83.8674 42.6496C83.9881 42.9507 83.0078 44.1551 83.0229 46.1874C83.053 49.9059 83.8373 53.1426 85.451 55.9127C87.0647 58.6827 89.2967 60.8355 92.1471 62.3711C94.9975 63.9217 98.3003 64.6895 102.071 64.6895C108.194 64.6895 113.11 63.169 116.292 59.6613C120.033 55.5514 120.259 51.6221 120.606 52.0587C120.681 52.1641 120.696 52.4501 120.817 52.8717C120.817 52.8717 122.461 65.1261 133.334 65.1261L133.349 65.111ZM99.4917 51.7275L97.1843 43.2668C96.6112 41.1592 97.8629 38.9763 99.9743 38.4042C100.321 38.3139 100.668 38.2687 101.015 38.2687C102.764 38.2687 104.363 39.4279 104.846 41.1893L107.153 49.65C107.726 51.7576 106.474 53.9405 104.363 54.5126C102.237 55.0847 100.065 53.8352 99.4917 51.7275Z" fill="white"/>
</g>
<defs>
<clipPath id="clip0_2792_676">
<rect width="228" height="80" fill="white"/>
</clipPath>
</defs>
</svg>
