<svg width="171" height="60" viewBox="0 0 171 60" fill="none" xmlns="http://www.w3.org/2000/svg">
<path d="M100.012 48.8333C102.15 48.8333 104.152 47.5009 105.125 46.5864C106.097 45.6718 107.24 44.2379 107.319 41.72C107.33 41.2571 107.319 40.5683 107.466 40.5457C107.613 40.5232 107.692 40.8732 107.783 41.2909C108.246 43.4701 109.615 45.8412 111.018 47.0267C112.409 48.2236 114.264 48.822 116.583 48.822C117.917 48.822 118.958 48.472 120.361 47.8058C124.693 45.7396 124.998 41.4151 124.998 41.4151C125.123 40.6925 125.009 40.1618 125.258 40.3877C125.507 40.6135 127.588 45.4347 129.217 46.7557C131.547 48.6413 132.893 48.8784 135.246 48.822C139.454 48.7204 141.761 47.1283 143.786 45.2653C146.353 42.8942 146.308 37.102 146.308 37.102C147.077 39.665 149.792 42.6684 151.341 43.7862C152.902 44.9153 154.463 45.4686 156.013 45.4686C156.013 45.4686 156.352 45.525 158.026 45.4686C159.7 45.4121 159.519 49.251 159.463 50.0753C159.372 51.385 159.27 52.7738 158.4 53.0561C157.495 53.3835 156.873 52.6722 156.318 52.1076C155.753 51.5544 155.199 50.6737 154.656 49.4769C154.147 48.3591 153.423 47.4445 152.484 46.7445C151.545 46.0444 150.516 45.6267 149.396 45.5024C148.265 45.367 147.145 45.6154 146.025 46.2251C144.939 46.8122 144.125 47.6251 143.582 48.6978C143.039 49.7591 142.813 50.9108 142.903 52.1415C142.994 53.3609 143.401 54.5352 144.125 55.6643C144.996 56.9627 146.195 58.0128 147.733 58.8032C149.272 59.5935 151.251 60 153.683 60C156.115 60 158.094 59.4919 159.655 58.4757C161.205 57.4708 162.46 56.0933 163.399 54.3545C164.338 52.627 165.107 50.6963 165.684 48.5623L169.586 34.3018C169.948 33.0373 170.276 31.6711 170.57 30.1807C170.853 28.7015 171 27.3466 171 26.1159C171 24.3884 170.491 22.977 169.45 21.8931C168.421 20.8092 167.052 20.2672 165.356 20.2672C163.467 20.2672 161.951 20.8205 160.797 21.9157C159.632 23.0222 159.056 24.4223 159.056 26.1159C159.056 27.1321 159.248 28.0467 159.621 28.8596C160.006 29.6726 160.436 30.3839 160.933 30.9936C161.42 31.6146 161.838 32.1679 162.2 32.676C163.037 33.7938 163.422 34.7422 163.342 35.5213C163.275 36.3003 162.89 37.2939 162.087 37.723C161.182 38.1972 159.757 38.886 158.264 37.3617C156.782 35.8374 157.483 33.2857 157.031 30.542C156.578 27.7983 155.708 25.6304 154.418 23.7335C153.117 21.8367 151.545 21.306 150.041 20.9898C148.536 20.6737 144.057 20.2785 142.304 20.3801C140.551 20.4705 138.481 20.4027 137.497 21.8705C136.513 23.3271 137.203 25.0659 137.203 25.0659L140.234 34.9003C140.234 34.9003 140.958 37.2036 140.867 38.1295C140.777 39.044 140.223 39.7102 139.205 40.1054C138.119 40.4667 137.214 40.3086 136.467 39.6199C135.721 38.9311 135.099 37.8585 134.59 36.4132L130.36 24.0045C129.884 22.5593 129.613 21.735 127.996 20.9221C126.163 20.0075 122.114 20.2672 120.564 21.4076C119.727 22.0173 118.834 22.8867 119.546 25.7207C120.259 28.5661 122.283 36.3681 122.283 36.3681C122.6 37.373 122.645 38.265 122.419 39.0215C122.182 39.778 121.684 40.286 120.926 40.5344C119.942 40.828 119.15 40.6248 118.528 39.9473C117.917 39.2586 117.465 38.4908 117.171 37.6665L112.613 23.79C112.149 22.3786 111.312 21.385 110.113 20.8092C108.925 20.2333 107.602 20.1995 106.154 20.6963C104.593 21.2044 103.586 22.1528 103.145 23.5416C102.693 24.9417 102.693 26.3417 103.168 27.7418L105.396 34.4712C106.12 36.56 106.38 38.0391 106.177 38.886C105.984 39.7328 105.498 40.286 104.74 40.5344C103.835 40.828 103.111 40.7038 102.568 40.1844C102.025 39.665 101.505 38.6263 100.996 37.0681L96.5396 23.79C96.0758 22.3786 95.2388 21.385 94.0398 20.8092C92.8522 20.2333 91.5288 20.1995 90.081 20.6963C88.5201 21.2044 87.2758 22.1076 87.0949 23.5755C86.9704 24.5691 87.4568 24.9981 87.2306 25.0546C86.9818 25.0546 85.4661 20.6963 76.5643 20.6963C73.7365 20.6963 71.2594 21.2157 69.1217 22.2431C68.2168 22.6722 67.4024 23.2029 66.6672 23.8239C66.407 23.1351 66.0337 22.5254 65.5361 22.006C64.5068 20.9221 63.1042 20.3801 61.3284 20.3801C59.5525 20.3801 58.2744 20.6172 56.7135 22.2206C55.1525 23.8239 54.1345 26.9966 53.5011 26.9289C52.8677 26.8498 53.4559 25.8675 53.5464 25.4498C53.897 23.8239 52.9469 22.5819 52.2004 21.9496C51.1484 21.0689 49.9382 20.4817 48.2415 20.4817C46.5449 20.4817 45.2215 21.0011 44.2713 22.0286C42.7896 23.7222 43.1968 25.2691 42.9593 25.2691C42.7783 25.2578 43.2307 24.3771 41.8621 22.548C40.7197 21.0237 38.7063 20.2898 35.8672 20.2898H27.9948C26.4678 20.2898 25.2914 20.7414 24.4544 21.656C23.6287 22.5819 23.2102 23.7787 23.2102 25.2578C23.2102 26.7369 23.6287 27.9563 24.4544 28.8935C25.2914 29.8306 26.7958 30.4742 27.9948 30.2936C29.1824 30.1242 30.3475 29.3451 31.2071 30.2936C32.3156 31.5356 29.895 33.6808 28.4585 34.426C27.0107 35.16 25.4611 35.5326 23.7984 35.5326C21.7963 35.5326 19.964 35.1712 18.3239 34.4599C16.6951 33.7373 15.383 32.6082 14.3989 31.0839C13.4149 29.5597 12.9737 27.595 12.9172 25.1901C12.6231 13.7411 21.2082 13.1426 22.7691 13.0862C28.6734 12.8717 27.531 16.0783 32.4061 16.0331C38.1181 15.9767 38.3331 11.0087 38.2652 9.51825C38.186 8.03914 35.132 0.0112909 23.6061 0C20.4164 0 17.385 0.530674 14.5234 1.60331C11.6617 2.67595 9.15062 4.26797 6.99021 6.37938C4.81849 8.49078 3.12184 11.1329 1.87763 14.2943C0.622106 17.4671 0 21.1366 0 25.3256C0 29.8193 0.701283 33.8389 2.10385 37.3956C2.10385 37.3956 5.38405 48.3929 17.1814 48.822C30.5171 49.3075 31.5804 41.72 31.5804 41.72C31.5464 41.8781 31.6935 46.0896 32.4966 47.1848C33.3675 48.3816 34.7814 49.0365 36.9305 49.0365C38.9325 49.0365 40.403 49.0365 41.7603 47.4445C43.1176 45.8525 42.8688 43.4023 43.095 43.4023C43.3099 43.4249 42.914 45.5589 44.26 47.3767C45.0744 48.472 46.5222 48.8446 48.2302 48.8446C49.9382 48.8446 51.2276 48.3591 52.1325 47.3767C53.0374 46.4057 53.4898 45.175 53.4898 43.6959C53.4898 43.6959 53.0148 39.6199 53.8065 35.0245C54.8132 29.1532 59.6091 32.5066 61.86 32.2582C62.8327 32.1566 62.8214 31.8178 62.9006 31.9872C62.9911 32.213 62.2559 33.1163 62.2672 34.6406C62.2898 37.4294 62.878 39.857 64.0882 41.9345C65.2985 44.012 66.9726 45.6267 69.1103 46.7783C71.2481 47.9413 73.7252 48.5171 76.553 48.5171C81.1453 48.5171 84.8327 47.3767 87.2193 44.746C90.0244 41.6635 90.1941 38.7166 90.4542 39.044C90.5108 39.1231 90.5221 39.3376 90.6126 39.6537C90.6126 39.6537 91.8455 48.8446 100.001 48.8446L100.012 48.8333ZM74.6188 38.7956L72.8882 32.4501C72.4584 30.8694 73.3972 29.2322 74.9808 28.8032C75.2409 28.7354 75.5011 28.7015 75.7612 28.7015C77.0733 28.7015 78.2723 29.5709 78.6342 30.892L80.3648 37.2375C80.7946 38.8182 79.8558 40.4554 78.2723 40.8845C76.6774 41.3135 75.0486 40.3764 74.6188 38.7956Z" fill="#FC6340"/>
</svg>
