<svg width="32" height="32" viewBox="0 0 32 32" fill="none" xmlns="http://www.w3.org/2000/svg">
<path fill-rule="evenodd" clip-rule="evenodd" d="M15.0162 29.5114C15.0162 29.5114 5.3335 21.3567 5.3335 13.3327C5.3335 10.5037 6.4573 7.7906 8.45769 5.79021C10.4581 3.78982 13.1712 2.66602 16.0002 2.66602C18.8291 2.66602 21.5422 3.78982 23.5426 5.79021C25.543 7.7906 26.6668 10.5037 26.6668 13.3327C26.6668 21.3567 16.9842 29.5114 16.9842 29.5114C16.4455 30.0074 15.5588 30.002 15.0162 29.5114ZM16.0002 17.9993C16.613 17.9993 17.2198 17.8786 17.786 17.6441C18.3522 17.4096 18.8667 17.0659 19.3 16.6325C19.7333 16.1992 20.0771 15.6847 20.3116 15.1185C20.5461 14.5524 20.6668 13.9455 20.6668 13.3327C20.6668 12.7198 20.5461 12.113 20.3116 11.5468C20.0771 10.9806 19.7333 10.4662 19.3 10.0329C18.8667 9.59951 18.3522 9.25577 17.786 9.02125C17.2198 8.78672 16.613 8.66602 16.0002 8.66602C14.7625 8.66602 13.5755 9.15768 12.7003 10.0329C11.8252 10.908 11.3335 12.095 11.3335 13.3327C11.3335 14.5704 11.8252 15.7573 12.7003 16.6325C13.5755 17.5077 14.7625 17.9993 16.0002 17.9993Z" fill="#202020"/>
</svg>
