<svg width="32" height="32" viewBox="0 0 32 32" fill="none" xmlns="http://www.w3.org/2000/svg">
<rect x="10" y="8" width="13" height="16" fill="white"/>
<path fill-rule="evenodd" clip-rule="evenodd" d="M16.7993 21.9467C18.2396 21.753 19.5606 21.0431 20.5169 19.9489C21.4733 18.8547 22.0001 17.4506 21.9993 15.9974V14.0001H20.3993V15.9974C20.3993 17.1644 19.9358 18.2835 19.1106 19.1087C18.2855 19.9338 17.1663 20.3974 15.9993 20.3974C14.8324 20.3974 13.7132 19.9338 12.8881 19.1087C12.0629 18.2835 11.5993 17.1644 11.5993 15.9974V14.0001H9.99935V15.9974C9.99864 17.4506 10.5254 18.8547 11.4818 19.9489C12.4381 21.0431 13.7591 21.753 15.1993 21.9467V24.0001H16.7993V21.9467ZM15.9993 29.3334C8.63535 29.3334 2.66602 23.3641 2.66602 16.0001C2.66602 8.63608 8.63535 2.66675 15.9993 2.66675C23.3633 2.66675 29.3327 8.63608 29.3327 16.0001C29.3327 23.3641 23.3633 29.3334 15.9993 29.3334ZM15.9993 8.66675C15.2921 8.66675 14.6138 8.9477 14.1137 9.4478C13.6136 9.94789 13.3327 10.6262 13.3327 11.3334V16.0001C13.3327 16.7073 13.6136 17.3856 14.1137 17.8857C14.6138 18.3858 15.2921 18.6667 15.9993 18.6667C16.7066 18.6667 17.3849 18.3858 17.885 17.8857C18.3851 17.3856 18.666 16.7073 18.666 16.0001V11.3334C18.666 10.6262 18.3851 9.94789 17.885 9.4478C17.3849 8.9477 16.7066 8.66675 15.9993 8.66675Z" fill="#FC6340"/>
</svg>
