<svg width="18" height="18" viewBox="0 0 18 18" fill="none" xmlns="http://www.w3.org/2000/svg">
<path d="M9 4.5C5.2725 4.5 1.5 5.6595 1.5 7.875V10.875C1.5 13.0905 5.2725 14.25 9 14.25C12.7275 14.25 16.5 13.0905 16.5 10.875V7.875C16.5 5.6595 12.7275 4.5 9 4.5ZM3 10.875V9.97725C3.47504 10.2462 3.97802 10.4625 4.5 10.6223V12.033C3.516 11.6475 3 11.1885 3 10.875ZM12 10.986V12.4642C11.3498 12.5985 10.5998 12.6967 9.75 12.7327V11.2328C10.5048 11.2021 11.2565 11.1197 12 10.986ZM8.25 12.7335C7.49406 12.7039 6.74168 12.6141 6 12.465V10.9868C6.71925 11.1173 7.479 11.202 8.25 11.2343V12.7335ZM13.5 12.033V10.6223C14.022 10.4625 14.525 10.2462 15 9.97725V10.875C15 11.1885 14.4847 11.6475 13.5 12.033ZM9 9.75C5.11725 9.75 3 8.51175 3 7.875C3 7.23825 5.11725 6 9 6C12.8828 6 15 7.23825 15 7.875C15 8.51175 12.8828 9.75 9 9.75Z" fill="black"/>
</svg>
