<svg width="32" height="32" viewBox="0 0 32 32" fill="none" xmlns="http://www.w3.org/2000/svg">
<rect width="32" height="32" rx="16" fill="#D9D9D9"/>
<path d="M22.9565 17.0435C23.2333 17.0435 23.4987 16.9335 23.6944 16.7379C23.8901 16.5422 24 16.2767 24 16C24 15.7233 23.8901 15.4578 23.6944 15.2622C23.4987 15.0665 23.2333 14.9565 22.9565 14.9565L17.0435 14.9565L17.0435 9.04348C17.0435 8.76673 16.9335 8.50132 16.7378 8.30563C16.5422 8.10994 16.2767 8 16 8C15.7233 8 15.4578 8.10994 15.2621 8.30563C15.0665 8.50132 14.9565 8.76673 14.9565 9.04348L14.9565 14.9565L9.04348 14.9565C8.76673 14.9565 8.50132 15.0665 8.30563 15.2621C8.10994 15.4578 8 15.7233 8 16C8 16.2767 8.10994 16.5422 8.30563 16.7378C8.50132 16.9335 8.76673 17.0435 9.04348 17.0435L14.9565 17.0435L14.9565 22.9565C14.9565 23.2333 15.0665 23.4987 15.2621 23.6944C15.4578 23.8901 15.7233 24 16 24C16.2767 24 16.5422 23.8901 16.7378 23.6944C16.9335 23.4987 17.0435 23.2333 17.0435 22.9565L17.0435 17.0435L22.9565 17.0435Z" fill="white"/>
</svg>
