<svg width="16" height="16" viewBox="0 0 16 16" fill="none" xmlns="http://www.w3.org/2000/svg">
<path d="M11.113 0.838573C11.6498 0.301719 12.3779 7.50216e-05 13.1371 1.3992e-08C13.8963 -7.49936e-05 14.6245 0.301425 15.1614 0.838173C15.6983 1.37492 15.9999 2.10295 16 2.8621C16.0001 3.62125 15.6986 4.34934 15.1618 4.8862L14.449 5.60053C14.935 6.08847 15.2076 6.74931 15.2068 7.43799C15.2061 8.12666 14.9321 8.78691 14.445 9.27379L13.0186 10.7001C12.9633 10.7574 12.8971 10.8031 12.8239 10.8346C12.7507 10.8661 12.672 10.8827 12.5923 10.8834C12.5126 10.8841 12.4336 10.869 12.3599 10.8388C12.2861 10.8087 12.2191 10.7642 12.1628 10.7079C12.1064 10.6516 12.0618 10.5846 12.0316 10.5109C12.0014 10.4372 11.9862 10.3582 11.9868 10.2785C11.9875 10.1989 12.004 10.1201 12.0354 10.0469C12.0668 9.97373 12.1125 9.9075 12.1698 9.85213L13.5962 8.42507C13.8583 8.1632 14.0059 7.8081 14.0067 7.43759C14.0074 7.06708 13.8612 6.71138 13.6002 6.44845L5.60184 14.4477C5.27678 14.773 4.86768 15.0015 4.42025 15.1076L0.739478 15.9836C0.639785 16.0074 0.53565 16.0053 0.437004 15.9774C0.338357 15.9496 0.248489 15.8969 0.175969 15.8245C0.10345 15.7521 0.0506978 15.6623 0.0227437 15.5637C-0.00521041 15.4651 -0.00743419 15.3609 0.0162843 15.2612L0.893077 11.58C0.999476 11.1328 1.22827 10.7241 1.55307 10.3993L11.113 0.838573Z" fill="#FEE9D8"/>
</svg>
