<svg width="18" height="18" viewBox="0 0 18 18" fill="none" xmlns="http://www.w3.org/2000/svg">
<path d="M8.25 8.8875L6.84375 10.2937C6.69375 10.4437 6.51575 10.5157 6.30975 10.5097C6.10375 10.5037 5.9255 10.4255 5.775 10.275C5.6375 10.125 5.5655 9.95 5.559 9.75C5.5525 9.55 5.6245 9.375 5.775 9.225L8.475 6.525C8.55 6.45 8.63125 6.397 8.71875 6.366C8.80625 6.335 8.9 6.31925 9 6.31875C9.1 6.31825 9.19375 6.334 9.28125 6.366C9.36875 6.398 9.45 6.451 9.525 6.525L12.225 9.225C12.375 9.375 12.447 9.55 12.441 9.75C12.435 9.95 12.363 10.125 12.225 10.275C12.075 10.425 11.897 10.5032 11.691 10.5097C11.485 10.5162 11.3067 10.4442 11.1562 10.2937L9.75 8.8875V14.25C9.75 14.4625 9.678 14.6407 9.534 14.7847C9.39 14.9287 9.212 15.0005 9 15C8.788 14.9995 8.61 14.9275 8.466 14.784C8.322 14.6405 8.25 14.4625 8.25 14.25V8.8875ZM3 6V4.5C3 4.0875 3.147 3.7345 3.441 3.441C3.735 3.1475 4.088 3.0005 4.5 3H13.5C13.9125 3 14.2658 3.147 14.5598 3.441C14.8538 3.735 15.0005 4.088 15 4.5V6C15 6.2125 14.928 6.39075 14.784 6.53475C14.64 6.67875 14.462 6.7505 14.25 6.75C14.038 6.7495 13.86 6.6775 13.716 6.534C13.572 6.3905 13.5 6.2125 13.5 6V4.5H4.5V6C4.5 6.2125 4.428 6.39075 4.284 6.53475C4.14 6.67875 3.962 6.7505 3.75 6.75C3.538 6.7495 3.36 6.6775 3.216 6.534C3.072 6.3905 3 6.2125 3 6Z" fill="black"/>
</svg>
