<svg width="85" height="85" viewBox="0 0 85 85" fill="none" xmlns="http://www.w3.org/2000/svg">
<g filter="url(#filter0_d_2808_462)">
<g filter="url(#filter1_d_2808_462)">
<rect x="4.6001" y="4.59961" width="67" height="67" rx="8" fill="white"/>
</g>
<g clip-path="url(#clip0_2808_462)">
<mask id="path-2-inside-1_2808_462" fill="white">
<path d="M45.5629 20.9318C46.3465 21.5462 46.8865 22.5386 47.1073 23.5778L47.1853 23.609L49.6393 24.7442C49.7764 24.8073 49.8926 24.9082 49.9742 25.0352C50.0558 25.1621 50.0995 25.3097 50.1001 25.4606V40.301C50.0992 40.4243 50.0698 40.5457 50.0141 40.6556C49.9584 40.7656 49.878 40.8612 49.7792 40.9349C49.6804 41.0087 49.5659 41.0585 49.4446 41.0805C49.3233 41.1025 49.1985 41.0961 49.0801 41.0618L42.2773 39.1418L34.1893 41.3714C34.0434 41.4117 33.8891 41.4101 33.7441 41.3666L26.6689 39.2606C26.5054 39.2125 26.3617 39.113 26.2592 38.9768C26.1567 38.8406 26.1009 38.675 26.1001 38.5046V23.3978C26.1001 22.8698 26.6137 22.4906 27.1261 22.6394L33.9685 24.6326L37.4461 23.5682C37.4941 23.5538 37.5429 23.5438 37.5925 23.5382C37.7269 22.751 38.1025 21.995 38.7325 21.2582C39.4801 20.3822 40.7917 19.8686 42.0697 19.8074C43.3957 19.7438 44.4085 20.027 45.5617 20.9306M27.6997 24.4574V37.9154L33.5437 39.6542V26.1578L27.6997 24.4574ZM37.5505 25.1942L35.1433 25.9298V39.4646L41.2213 37.7918V33.8378C41.2213 33.401 41.5801 33.047 42.0217 33.047C42.4633 33.047 42.8209 33.401 42.8209 33.839V37.6514L48.5005 39.2534V25.9634L47.1565 25.3394C47.1341 25.4714 47.1049 25.6006 47.0689 25.727C46.8089 26.6475 46.3711 27.5081 45.7801 28.2602L42.8077 31.9718C42.7294 32.0694 42.6295 32.1473 42.5158 32.1995C42.4021 32.2517 42.2778 32.2766 42.1528 32.2723C42.0278 32.268 41.9055 32.2346 41.7956 32.1747C41.6858 32.1148 41.5915 32.0301 41.5201 31.9274L38.7421 27.9038C38.2829 27.2646 37.9625 26.6902 37.7809 26.1806C37.6667 25.8616 37.5894 25.5307 37.5505 25.1942ZM42.1465 21.389C41.2753 21.431 40.3801 21.7814 39.9541 22.2794C39.4417 22.8794 39.1897 23.441 39.1393 24.0098C39.0793 24.695 39.1201 25.1786 39.2905 25.6574C39.4165 26.0114 39.6673 26.4602 40.0549 27.0014L42.2281 30.1478L44.5201 27.2858C44.9828 26.695 45.3256 26.0196 45.5293 25.2974C45.8173 24.2894 45.3829 22.8086 44.5693 22.1726C43.7353 21.5186 43.1053 21.3422 42.1477 21.389M42.3133 22.2254C43.6381 22.2254 44.7133 23.2874 44.7133 24.5978C44.7092 25.2305 44.4541 25.8357 44.0041 26.2805C43.5541 26.7253 42.946 26.9734 42.3133 26.9702C40.9885 26.9702 39.9133 25.9082 39.9133 24.5978C39.9133 23.2874 40.9885 22.2254 42.3133 22.2254ZM42.3133 23.807C42.2088 23.8063 42.1052 23.8263 42.0085 23.8657C41.9117 23.9051 41.8236 23.9632 41.7493 24.0366C41.675 24.11 41.6159 24.1974 41.5753 24.2937C41.5347 24.39 41.5135 24.4933 41.5129 24.5978C41.5129 25.0346 41.8717 25.3886 42.3133 25.3886C42.4178 25.3891 42.5213 25.3689 42.618 25.3294C42.7147 25.2898 42.8027 25.2316 42.8769 25.1581C42.9511 25.0846 43.0101 24.9971 43.0506 24.9008C43.091 24.8044 43.112 24.7011 43.1125 24.5966C43.1109 24.386 43.0259 24.1846 42.8761 24.0366C42.7263 23.8886 42.5239 23.806 42.3133 23.807Z"/>
</mask>
<path d="M45.5629 20.9318C46.3465 21.5462 46.8865 22.5386 47.1073 23.5778L47.1853 23.609L49.6393 24.7442C49.7764 24.8073 49.8926 24.9082 49.9742 25.0352C50.0558 25.1621 50.0995 25.3097 50.1001 25.4606V40.301C50.0992 40.4243 50.0698 40.5457 50.0141 40.6556C49.9584 40.7656 49.878 40.8612 49.7792 40.9349C49.6804 41.0087 49.5659 41.0585 49.4446 41.0805C49.3233 41.1025 49.1985 41.0961 49.0801 41.0618L42.2773 39.1418L34.1893 41.3714C34.0434 41.4117 33.8891 41.4101 33.7441 41.3666L26.6689 39.2606C26.5054 39.2125 26.3617 39.113 26.2592 38.9768C26.1567 38.8406 26.1009 38.675 26.1001 38.5046V23.3978C26.1001 22.8698 26.6137 22.4906 27.1261 22.6394L33.9685 24.6326L37.4461 23.5682C37.4941 23.5538 37.5429 23.5438 37.5925 23.5382C37.7269 22.751 38.1025 21.995 38.7325 21.2582C39.4801 20.3822 40.7917 19.8686 42.0697 19.8074C43.3957 19.7438 44.4085 20.027 45.5617 20.9306M27.6997 24.4574V37.9154L33.5437 39.6542V26.1578L27.6997 24.4574ZM37.5505 25.1942L35.1433 25.9298V39.4646L41.2213 37.7918V33.8378C41.2213 33.401 41.5801 33.047 42.0217 33.047C42.4633 33.047 42.8209 33.401 42.8209 33.839V37.6514L48.5005 39.2534V25.9634L47.1565 25.3394C47.1341 25.4714 47.1049 25.6006 47.0689 25.727C46.8089 26.6475 46.3711 27.5081 45.7801 28.2602L42.8077 31.9718C42.7294 32.0694 42.6295 32.1473 42.5158 32.1995C42.4021 32.2517 42.2778 32.2766 42.1528 32.2723C42.0278 32.268 41.9055 32.2346 41.7956 32.1747C41.6858 32.1148 41.5915 32.0301 41.5201 31.9274L38.7421 27.9038C38.2829 27.2646 37.9625 26.6902 37.7809 26.1806C37.6667 25.8616 37.5894 25.5307 37.5505 25.1942ZM42.1465 21.389C41.2753 21.431 40.3801 21.7814 39.9541 22.2794C39.4417 22.8794 39.1897 23.441 39.1393 24.0098C39.0793 24.695 39.1201 25.1786 39.2905 25.6574C39.4165 26.0114 39.6673 26.4602 40.0549 27.0014L42.2281 30.1478L44.5201 27.2858C44.9828 26.695 45.3256 26.0196 45.5293 25.2974C45.8173 24.2894 45.3829 22.8086 44.5693 22.1726C43.7353 21.5186 43.1053 21.3422 42.1477 21.389M42.3133 22.2254C43.6381 22.2254 44.7133 23.2874 44.7133 24.5978C44.7092 25.2305 44.4541 25.8357 44.0041 26.2805C43.5541 26.7253 42.946 26.9734 42.3133 26.9702C40.9885 26.9702 39.9133 25.9082 39.9133 24.5978C39.9133 23.2874 40.9885 22.2254 42.3133 22.2254ZM42.3133 23.807C42.2088 23.8063 42.1052 23.8263 42.0085 23.8657C41.9117 23.9051 41.8236 23.9632 41.7493 24.0366C41.675 24.11 41.6159 24.1974 41.5753 24.2937C41.5347 24.39 41.5135 24.4933 41.5129 24.5978C41.5129 25.0346 41.8717 25.3886 42.3133 25.3886C42.4178 25.3891 42.5213 25.3689 42.618 25.3294C42.7147 25.2898 42.8027 25.2316 42.8769 25.1581C42.9511 25.0846 43.0101 24.9971 43.0506 24.9008C43.091 24.8044 43.112 24.7011 43.1125 24.5966C43.1109 24.386 43.0259 24.1846 42.8761 24.0366C42.7263 23.8886 42.5239 23.806 42.3133 23.807Z" fill="#202020"/>
<path d="M47.1073 23.5778L46.1291 23.7856L46.2401 24.3079L46.7359 24.5062L47.1073 23.5778ZM47.1853 23.609L47.6051 22.7014L47.5812 22.6903L47.5567 22.6805L47.1853 23.609ZM49.6393 24.7442L49.2194 25.6518L49.2211 25.6525L49.6393 24.7442ZM50.1001 25.4606H51.1001L51.1001 25.4568L50.1001 25.4606ZM50.1001 40.301L51.1001 40.3081V40.301H50.1001ZM49.0801 41.0618L49.3583 40.1012L49.3517 40.0994L49.0801 41.0618ZM42.2773 39.1418L42.5489 38.1794L42.2805 38.1036L42.0115 38.1777L42.2773 39.1418ZM34.1893 41.3714L33.9235 40.4073L33.9228 40.4075L34.1893 41.3714ZM33.7441 41.3666L34.0313 40.4087L34.0294 40.4081L33.7441 41.3666ZM26.6689 39.2606L26.9542 38.3021L26.9507 38.3011L26.6689 39.2606ZM26.1001 38.5046H25.1001L25.1001 38.5095L26.1001 38.5046ZM27.1261 22.6394L27.4058 21.6793L27.405 21.679L27.1261 22.6394ZM33.9685 24.6326L33.6888 25.5927L33.9756 25.6762L34.2612 25.5888L33.9685 24.6326ZM37.4461 23.5682L37.1587 22.6103L37.1534 22.612L37.4461 23.5682ZM37.5925 23.5382L37.7047 24.5319L38.4517 24.4475L38.5782 23.7065L37.5925 23.5382ZM38.7325 21.2582L39.4925 21.908L39.4932 21.9073L38.7325 21.2582ZM42.0697 19.8074L42.1175 20.8062L42.1176 20.8062L42.0697 19.8074ZM27.6997 24.4574L27.9791 23.4972L26.6997 23.1249V24.4574H27.6997ZM27.6997 37.9154H26.6997V38.6612L27.4145 38.8738L27.6997 37.9154ZM33.5437 39.6542L33.2585 40.6127L34.5437 40.995V39.6542H33.5437ZM33.5437 26.1578H34.5437V25.4073L33.8231 25.1976L33.5437 26.1578ZM37.5505 25.1942L38.5439 25.0793L38.406 23.8871L37.2583 24.2378L37.5505 25.1942ZM35.1433 25.9298L34.8511 24.9734L34.1433 25.1897V25.9298H35.1433ZM35.1433 39.4646H34.1433V40.777L35.4087 40.4287L35.1433 39.4646ZM41.2213 37.7918L41.4867 38.7559L42.2213 38.5537V37.7918H41.2213ZM42.8209 37.6514H41.8209V38.4083L42.5494 38.6138L42.8209 37.6514ZM48.5005 39.2534L48.229 40.2158L49.5005 40.5745V39.2534H48.5005ZM48.5005 25.9634H49.5005V25.3251L48.9216 25.0564L48.5005 25.9634ZM47.1565 25.3394L47.5776 24.4324L46.3897 23.8808L46.1706 25.1721L47.1565 25.3394ZM47.0689 25.727L46.1071 25.4531L46.1065 25.4552L47.0689 25.727ZM45.7801 28.2602L46.5607 28.8853L46.5664 28.878L45.7801 28.2602ZM42.8077 31.9718L43.5878 32.5974L43.5882 32.5969L42.8077 31.9718ZM42.1528 32.2723L42.1183 33.2717L42.1528 32.2723ZM41.5201 31.9274L40.6972 32.4955L40.6987 32.4978L41.5201 31.9274ZM38.7421 27.9038L39.565 27.3356L39.5597 27.3279L39.5542 27.3203L38.7421 27.9038ZM37.7809 26.1806L38.7229 25.8449L38.7224 25.8435L37.7809 26.1806ZM39.9541 22.2794L39.1942 21.6293L39.1937 21.63L39.9541 22.2794ZM39.1393 24.0098L38.1432 23.9215L38.1431 23.9225L39.1393 24.0098ZM39.2905 25.6574L38.3484 25.9927L38.3484 25.9927L39.2905 25.6574ZM40.0549 27.0014L40.8777 26.4331L40.8729 26.426L40.8679 26.4191L40.0549 27.0014ZM42.2281 30.1478L41.4053 30.7161L42.1688 31.8216L43.0086 30.7729L42.2281 30.1478ZM44.5201 27.2858L45.3007 27.9109L45.3074 27.9024L44.5201 27.2858ZM45.5293 25.2974L44.5678 25.0227L44.5668 25.026L45.5293 25.2974ZM44.5693 22.1726L43.9522 22.9595L43.9534 22.9604L44.5693 22.1726ZM44.7133 24.5978L45.7133 24.6043V24.5978H44.7133ZM42.3133 26.9702L42.3183 25.9702H42.3133V26.9702ZM42.3133 23.807L42.3072 24.807L42.3179 24.807L42.3133 23.807ZM41.5129 24.5978L40.5129 24.5918V24.5978H41.5129ZM42.3133 25.3886L42.3178 24.3886H42.3133V25.3886ZM43.1125 24.5966L44.1126 24.6011L44.1125 24.589L43.1125 24.5966ZM45.5629 20.9318L44.9459 21.7187C45.5054 22.1574 45.9455 22.9213 46.1291 23.7856L47.1073 23.5778L48.0855 23.3699C47.8275 22.1558 47.1876 20.9349 46.1799 20.1448L45.5629 20.9318ZM47.1073 23.5778L46.7359 24.5062L46.8139 24.5374L47.1853 23.609L47.5567 22.6805L47.4787 22.6493L47.1073 23.5778ZM47.1853 23.609L46.7655 24.5166L49.2195 25.6518L49.6393 24.7442L50.0591 23.8366L47.6051 22.7014L47.1853 23.609ZM49.6393 24.7442L49.2211 25.6525C49.1851 25.636 49.1546 25.6095 49.1332 25.5761L49.9742 25.0352L50.8153 24.4942C50.6305 24.207 50.3676 23.9786 50.0575 23.8358L49.6393 24.7442ZM49.9742 25.0352L49.1332 25.5761C49.1117 25.5428 49.1003 25.504 49.1001 25.4644L50.1001 25.4606L51.1001 25.4568C51.0988 25.1153 51 24.7814 50.8153 24.4942L49.9742 25.0352ZM50.1001 25.4606H49.1001V40.301H50.1001H51.1001V25.4606H50.1001ZM50.1001 40.301L49.1001 40.2938C49.1003 40.2626 49.1078 40.2319 49.1219 40.2041L50.0141 40.6556L50.9063 41.1072C51.0318 40.8594 51.0981 40.5859 51.1001 40.3081L50.1001 40.301ZM50.0141 40.6556L49.1219 40.2041C49.136 40.1762 49.1563 40.152 49.1813 40.1334L49.7792 40.9349L50.3771 41.7365C50.5998 41.5705 50.7809 41.3551 50.9063 41.1072L50.0141 40.6556ZM49.7792 40.9349L49.1813 40.1334C49.2064 40.1147 49.2354 40.1021 49.2661 40.0965L49.4446 41.0805L49.6231 42.0644C49.8964 42.0148 50.1545 41.9026 50.3771 41.7365L49.7792 40.9349ZM49.4446 41.0805L49.2661 40.0965C49.2968 40.091 49.3283 40.0926 49.3583 40.1013L49.0801 41.0618L48.8019 42.0223C49.0687 42.0996 49.3498 42.114 49.6231 42.0644L49.4446 41.0805ZM49.0801 41.0618L49.3517 40.0994L42.5489 38.1794L42.2773 39.1418L42.0057 40.1042L48.8085 42.0242L49.0801 41.0618ZM42.2773 39.1418L42.0115 38.1777L33.9235 40.4073L34.1893 41.3714L34.4551 42.3354L42.5431 40.1058L42.2773 39.1418ZM34.1893 41.3714L33.9228 40.4075C33.9584 40.3977 33.996 40.3981 34.0313 40.4087L33.7441 41.3666L33.4569 42.3244C33.7822 42.422 34.1285 42.4257 34.4558 42.3352L34.1893 41.3714ZM33.7441 41.3666L34.0294 40.4081L26.9542 38.3021L26.6689 39.2606L26.3836 40.219L33.4588 42.325L33.7441 41.3666ZM26.6689 39.2606L26.9507 38.3011C26.9937 38.3137 27.0314 38.3399 27.0583 38.3756L26.2592 38.9768L25.4601 39.5781C25.692 39.8862 26.0171 40.1114 26.3871 40.22L26.6689 39.2606ZM26.2592 38.9768L27.0583 38.3756C27.0852 38.4114 27.0999 38.4549 27.1001 38.4996L26.1001 38.5046L25.1001 38.5095C25.102 38.8951 25.2283 39.2699 25.4601 39.5781L26.2592 38.9768ZM26.1001 38.5046H27.1001V23.3978H26.1001H25.1001V38.5046H26.1001ZM26.1001 23.3978H27.1001C27.1001 23.5531 26.958 23.6319 26.8472 23.5997L27.1261 22.6394L27.405 21.679C26.2694 21.3493 25.1001 22.1865 25.1001 23.3978H26.1001ZM27.1261 22.6394L26.8464 23.5995L33.6888 25.5927L33.9685 24.6326L34.2482 23.6725L27.4058 21.6793L27.1261 22.6394ZM33.9685 24.6326L34.2612 25.5888L37.7388 24.5244L37.4461 23.5682L37.1534 22.612L33.6758 23.6764L33.9685 24.6326ZM37.4461 23.5682L37.7334 24.526C37.7245 24.5287 37.7147 24.5307 37.7047 24.5319L37.5925 23.5382L37.4803 22.5445C37.3711 22.5568 37.2637 22.5789 37.1588 22.6103L37.4461 23.5682ZM37.5925 23.5382L38.5782 23.7065C38.6767 23.1295 38.9566 22.5348 39.4925 21.908L38.7325 21.2582L37.9725 20.6083C37.2484 21.4551 36.777 22.3725 36.6068 23.3699L37.5925 23.5382ZM38.7325 21.2582L39.4932 21.9073C40.012 21.2994 41.0283 20.8584 42.1175 20.8062L42.0697 19.8074L42.0219 18.8085C40.5551 18.8788 38.9482 19.465 37.9718 20.609L38.7325 21.2582ZM42.0697 19.8074L42.1176 20.8062C43.212 20.7537 43.9871 20.9672 44.9449 21.7177L45.5617 20.9306L46.1785 20.1434C44.8299 19.0868 43.5794 18.7338 42.0218 18.8085L42.0697 19.8074ZM27.6997 24.4574H26.6997V37.9154H27.6997H28.6997V24.4574H27.6997ZM27.6997 37.9154L27.4145 38.8738L33.2585 40.6127L33.5437 39.6542L33.8289 38.6957L27.9849 36.9569L27.6997 37.9154ZM33.5437 39.6542H34.5437V26.1578H33.5437H32.5437V39.6542H33.5437ZM33.5437 26.1578L33.8231 25.1976L27.9791 23.4972L27.6997 24.4574L27.4203 25.4176L33.2643 27.118L33.5437 26.1578ZM37.5505 25.1942L37.2583 24.2378L34.8511 24.9734L35.1433 25.9298L35.4355 26.8861L37.8427 26.1505L37.5505 25.1942ZM35.1433 25.9298H34.1433V39.4646H35.1433H36.1433V25.9298H35.1433ZM35.1433 39.4646L35.4087 40.4287L41.4867 38.7559L41.2213 37.7918L40.9559 36.8276L34.8779 38.5004L35.1433 39.4646ZM41.2213 37.7918H42.2213V33.8378H41.2213H40.2213V37.7918H41.2213ZM41.2213 33.8378H42.2213C42.2213 33.965 42.1206 34.047 42.0217 34.047V33.047V32.047C41.0396 32.047 40.2213 32.8369 40.2213 33.8378H41.2213ZM42.0217 33.047V34.047C41.9199 34.047 41.8209 33.9621 41.8209 33.839H42.8209H43.8209C43.8209 32.8399 43.0067 32.047 42.0217 32.047V33.047ZM42.8209 33.839H41.8209V37.6514H42.8209H43.8209V33.839H42.8209ZM42.8209 37.6514L42.5494 38.6138L48.229 40.2158L48.5005 39.2534L48.772 38.2909L43.0924 36.6889L42.8209 37.6514ZM48.5005 39.2534H49.5005V25.9634H48.5005H47.5005V39.2534H48.5005ZM48.5005 25.9634L48.9216 25.0564L47.5776 24.4324L47.1565 25.3394L46.7354 26.2464L48.0794 26.8704L48.5005 25.9634ZM47.1565 25.3394L46.1706 25.1721C46.1542 25.2688 46.133 25.3624 46.1071 25.4531L47.0689 25.727L48.0307 26.0009C48.0768 25.8388 48.114 25.674 48.1424 25.5067L47.1565 25.3394ZM47.0689 25.727L46.1065 25.4552C45.8821 26.2499 45.5041 26.993 44.9938 27.6423L45.7801 28.2602L46.5664 28.878C47.2381 28.0232 47.7358 27.045 48.0313 25.9988L47.0689 25.727ZM45.7801 28.2602L44.9995 27.6351L42.0272 31.3467L42.8077 31.9718L43.5882 32.5969L46.5606 28.8853L45.7801 28.2602ZM42.8077 31.9718L42.0276 31.3462C42.0467 31.3224 42.071 31.3034 42.0987 31.2906L42.5158 32.1995L42.9328 33.1084C43.1879 32.9913 43.4122 32.8164 43.5878 32.5974L42.8077 31.9718ZM42.5158 32.1995L42.0987 31.2906C42.1264 31.2779 42.1568 31.2718 42.1872 31.2729L42.1528 32.2723L42.1183 33.2717C42.3988 33.2814 42.6777 33.2255 42.9328 33.1084L42.5158 32.1995ZM42.1528 32.2723L42.1872 31.2729C42.2177 31.2739 42.2475 31.2821 42.2743 31.2967L41.7956 32.1747L41.317 33.0527C41.5634 33.187 41.8378 33.262 42.1183 33.2717L42.1528 32.2723ZM41.7956 32.1747L42.2743 31.2967C42.3011 31.3113 42.3241 31.3319 42.3415 31.357L41.5201 31.9274L40.6987 32.4978C40.8588 32.7283 41.0705 32.9183 41.317 33.0527L41.7956 32.1747ZM41.5201 31.9274L42.343 31.3592L39.565 27.3356L38.7421 27.9038L37.9192 28.4719L40.6972 32.4955L41.5201 31.9274ZM38.7421 27.9038L39.5542 27.3203C39.1273 26.726 38.8623 26.2361 38.7229 25.8449L37.7809 26.1806L36.8389 26.5163C37.0627 27.1442 37.4385 27.8032 37.9299 28.4872L38.7421 27.9038ZM37.7809 26.1806L38.7224 25.8435C38.6339 25.5964 38.574 25.34 38.5439 25.0793L37.5505 25.1942L36.5571 25.3091C36.6048 25.7214 36.6995 26.1269 36.8394 26.5176L37.7809 26.1806ZM42.1465 21.389L42.0983 20.3901C41.5515 20.4165 41.0001 20.5385 40.5105 20.7353C40.0315 20.9278 39.5454 21.2188 39.1942 21.6293L39.9541 22.2794L40.714 22.9294C40.7888 22.842 40.9633 22.7088 41.2562 22.5911C41.5385 22.4776 41.8703 22.4035 42.1947 22.3878L42.1465 21.389ZM39.9541 22.2794L39.1937 21.63C38.5829 22.3451 38.2164 23.0959 38.1432 23.9215L39.1393 24.0098L40.1354 24.098C40.163 23.7861 40.3005 23.4136 40.7145 22.9288L39.9541 22.2794ZM39.1393 24.0098L38.1431 23.9225C38.0754 24.6956 38.1142 25.3346 38.3484 25.9927L39.2905 25.6574L40.2326 25.3221C40.126 25.0226 40.0832 24.6944 40.1355 24.097L39.1393 24.0098ZM39.2905 25.6574L38.3484 25.9927C38.519 26.4721 38.8294 27.0076 39.2419 27.5836L40.0549 27.0014L40.8679 26.4191C40.5052 25.9127 40.314 25.5507 40.2326 25.3221L39.2905 25.6574ZM40.0549 27.0014L39.2321 27.5697L41.4053 30.7161L42.2281 30.1478L43.0509 29.5795L40.8777 26.4331L40.0549 27.0014ZM42.2281 30.1478L43.0086 30.7729L45.3006 27.9109L44.5201 27.2858L43.7395 26.6607L41.4475 29.5227L42.2281 30.1478ZM44.5201 27.2858L45.3074 27.9024C45.8504 27.2091 46.2527 26.4164 46.4918 25.5688L45.5293 25.2974L44.5668 25.026C44.3985 25.6228 44.1152 26.181 43.7328 26.6691L44.5201 27.2858ZM45.5293 25.2974L46.4908 25.5721C46.7007 24.8375 46.6338 24.0134 46.4195 23.3057C46.2062 22.6012 45.8028 21.8675 45.1852 21.3847L44.5693 22.1726L43.9534 22.9604C44.1494 23.1136 44.37 23.4383 44.5053 23.8852C44.6396 24.3289 44.6459 24.7493 44.5678 25.0227L45.5293 25.2974ZM44.5693 22.1726L45.1864 21.3857C44.707 21.0097 44.2348 20.7308 43.7049 20.5641C43.1745 20.3972 42.6506 20.3632 42.0989 20.3902L42.1477 21.389L42.1965 22.3878C42.6024 22.3679 42.8723 22.3988 43.1048 22.4719C43.3378 22.5452 43.5976 22.6814 43.9522 22.9595L44.5693 22.1726ZM42.3133 22.2254V23.2254C43.097 23.2254 43.7133 23.8508 43.7133 24.5978H44.7133H45.7133C45.7133 22.724 44.1792 21.2254 42.3133 21.2254V22.2254ZM44.7133 24.5978L43.7133 24.5913C43.7109 24.959 43.5627 25.3108 43.3011 25.5693L44.0041 26.2805L44.7071 26.9917C45.3456 26.3606 45.7074 25.502 45.7133 24.6043L44.7133 24.5978ZM44.0041 26.2805L43.3011 25.5693C43.0396 25.8279 42.6861 25.972 42.3183 25.9702L42.3133 26.9702L42.3083 27.9702C43.2059 27.9747 44.0687 27.6228 44.7071 26.9917L44.0041 26.2805ZM42.3133 26.9702V25.9702C41.5296 25.9702 40.9133 25.3448 40.9133 24.5978H39.9133H38.9133C38.9133 26.4716 40.4474 27.9702 42.3133 27.9702V26.9702ZM39.9133 24.5978H40.9133C40.9133 23.8508 41.5296 23.2254 42.3133 23.2254V22.2254V21.2254C40.4474 21.2254 38.9133 22.724 38.9133 24.5978H39.9133ZM42.3133 23.807L42.3193 22.807C42.0835 22.8056 41.8498 22.8506 41.6314 22.9395L42.0085 23.8657L42.3856 24.7919C42.3607 24.802 42.3341 24.8071 42.3072 24.807L42.3133 23.807ZM42.0085 23.8657L41.6314 22.9395C41.413 23.0284 41.2142 23.1595 41.0465 23.3252L41.7493 24.0366L42.4521 24.748C42.433 24.7668 42.4104 24.7817 42.3856 24.7919L42.0085 23.8657ZM41.7493 24.0366L41.0465 23.3252C40.8787 23.491 40.7453 23.6881 40.6537 23.9054L41.5753 24.2937L42.4968 24.6819C42.4864 24.7067 42.4712 24.7291 42.4521 24.748L41.7493 24.0366ZM41.5753 24.2937L40.6537 23.9054C40.5622 24.1227 40.5143 24.356 40.5129 24.5918L41.5129 24.5978L42.5129 24.6038C42.5127 24.6306 42.5073 24.6572 42.4968 24.6819L41.5753 24.2937ZM41.5129 24.5978H40.5129C40.5129 25.5986 41.3312 26.3886 42.3133 26.3886V25.3886V24.3886C42.4122 24.3886 42.5129 24.4705 42.5129 24.5978H41.5129ZM42.3133 25.3886L42.3088 26.3886C42.5446 26.3896 42.7783 26.3442 42.9965 26.255L42.618 25.3294L42.2395 24.4038C42.2644 24.3936 42.291 24.3885 42.3178 24.3886L42.3133 25.3886ZM42.618 25.3294L42.9965 26.255C43.2148 26.1657 43.4133 26.0344 43.5808 25.8684L42.8769 25.1581L42.173 24.4478C42.1921 24.4289 42.2147 24.414 42.2395 24.4038L42.618 25.3294ZM42.8769 25.1581L43.5808 25.8684C43.7483 25.7024 43.8815 25.5051 43.9727 25.2876L43.0506 24.9008L42.1284 24.5139C42.1388 24.4892 42.154 24.4667 42.173 24.4478L42.8769 25.1581ZM43.0506 24.9008L43.9727 25.2876C44.0639 25.0702 44.1114 24.8369 44.1125 24.6011L43.1125 24.5966L42.1125 24.5921C42.1126 24.5652 42.118 24.5387 42.1284 24.5139L43.0506 24.9008ZM43.1125 24.5966L44.1125 24.589C44.1089 24.1138 43.917 23.6593 43.5789 23.3252L42.8761 24.0366L42.1733 24.748C42.1348 24.7099 42.1129 24.6582 42.1125 24.6041L43.1125 24.5966ZM42.8761 24.0366L43.5789 23.3252C43.2408 22.9912 42.784 22.8048 42.3087 22.807L42.3133 23.807L42.3179 24.807C42.2637 24.8072 42.2118 24.786 42.1733 24.748L42.8761 24.0366Z" fill="#202020" mask="url(#path-2-inside-1_2808_462)"/>
</g>
<path d="M22.7601 54.5996V47.3269H25.2175C25.7856 47.3269 26.252 47.4239 26.6166 47.6181C26.9812 47.8098 27.2511 48.0738 27.4263 48.41C27.6015 48.7462 27.6891 49.1285 27.6891 49.557C27.6891 49.9855 27.6015 50.3655 27.4263 50.6969C27.2511 51.0283 26.9824 51.2888 26.6202 51.4782C26.2579 51.6652 25.7951 51.7587 25.2317 51.7587H23.243V50.9632H25.2033C25.5915 50.9632 25.904 50.9064 26.1408 50.7928C26.3799 50.6792 26.5527 50.5182 26.6592 50.3098C26.7681 50.0991 26.8226 49.8482 26.8226 49.557C26.8226 49.2658 26.7681 49.0113 26.6592 48.7935C26.5503 48.5757 26.3763 48.4076 26.1372 48.2892C25.8981 48.1685 25.582 48.1081 25.1891 48.1081H23.6408V54.5996H22.7601ZM26.1834 51.3326L27.9731 54.5996H26.9504L25.1891 51.3326H26.1834ZM31.2713 54.7132C30.7457 54.7132 30.2923 54.5972 29.9112 54.3652C29.5324 54.1309 29.24 53.8042 29.034 53.3851C28.8304 52.9637 28.7286 52.4737 28.7286 51.915C28.7286 51.3562 28.8304 50.8638 29.034 50.4377C29.24 50.0092 29.5265 49.6754 29.8934 49.4363C30.2627 49.1948 30.6936 49.074 31.186 49.074C31.4701 49.074 31.7507 49.1214 32.0277 49.2161C32.3046 49.3108 32.5568 49.4647 32.784 49.6777C33.0113 49.8884 33.1924 50.1678 33.3274 50.5158C33.4623 50.8638 33.5298 51.2923 33.5298 51.8013V52.1564H29.3252V51.432H32.6775C32.6775 51.1242 32.616 50.8496 32.4929 50.6081C32.3721 50.3667 32.1993 50.1761 31.9744 50.0364C31.7518 49.8967 31.4891 49.8269 31.186 49.8269C30.8522 49.8269 30.5634 49.9097 30.3196 50.0755C30.0781 50.2388 29.8922 50.4519 29.762 50.7147C29.6318 50.9775 29.5667 51.2592 29.5667 51.5598V52.0428C29.5667 52.4547 29.6377 52.8039 29.7798 53.0904C29.9242 53.3745 30.1242 53.5911 30.3799 53.7402C30.6356 53.887 30.9327 53.9604 31.2713 53.9604C31.4914 53.9604 31.6903 53.9296 31.8679 53.8681C32.0478 53.8042 32.2028 53.7095 32.3331 53.584C32.4633 53.4561 32.5639 53.2975 32.6349 53.1081L33.4446 53.3354C33.3593 53.61 33.2161 53.8515 33.0149 54.0598C32.8136 54.2658 32.5651 54.4268 32.2691 54.5428C31.9732 54.6564 31.6406 54.7132 31.2713 54.7132ZM37.0063 56.7587C36.6015 56.7587 36.2535 56.7066 35.9623 56.6025C35.6711 56.5007 35.4285 56.3657 35.2343 56.1976C35.0426 56.0319 34.8899 55.8543 34.7762 55.665L35.4438 55.1962C35.5196 55.2956 35.6155 55.4093 35.7315 55.5371C35.8475 55.6673 36.0061 55.7798 36.2073 55.8745C36.4109 55.9715 36.6773 56.0201 37.0063 56.0201C37.4467 56.0201 37.8101 55.9135 38.0965 55.7005C38.383 55.4874 38.5262 55.1536 38.5262 54.699V53.5911H38.4552C38.3937 53.6905 38.3061 53.8136 38.1924 53.9604C38.0812 54.1048 37.9202 54.2338 37.7095 54.3475C37.5011 54.4587 37.2194 54.5144 36.8643 54.5144C36.424 54.5144 36.0286 54.4102 35.6782 54.2019C35.3302 53.9935 35.0544 53.6905 34.8508 53.2928C34.6496 52.8951 34.549 52.4121 34.549 51.8439C34.549 51.2852 34.6472 50.7987 34.8437 50.3844C35.0402 49.9677 35.3136 49.6458 35.664 49.4185C36.0144 49.1889 36.4192 49.074 36.8785 49.074C37.2336 49.074 37.5153 49.1332 37.7237 49.2516C37.9344 49.3676 38.0954 49.5002 38.2066 49.6493C38.3203 49.7961 38.4079 49.9168 38.4694 50.0115H38.5546V49.1451H39.3643V54.7559C39.3643 55.2246 39.2578 55.6058 39.0447 55.8993C38.834 56.1953 38.5499 56.4119 38.1924 56.5492C37.8373 56.6889 37.442 56.7587 37.0063 56.7587ZM36.9779 53.7615C37.3141 53.7615 37.5982 53.6846 37.8302 53.5307C38.0622 53.3768 38.2386 53.1555 38.3593 52.8667C38.4801 52.5778 38.5404 52.2322 38.5404 51.8297C38.5404 51.4367 38.4813 51.0899 38.3629 50.7892C38.2445 50.4886 38.0693 50.253 37.8373 50.0826C37.6053 49.9121 37.3188 49.8269 36.9779 49.8269C36.6228 49.8269 36.3269 49.9168 36.0902 50.0968C35.8558 50.2767 35.6794 50.5182 35.561 50.8212C35.445 51.1242 35.387 51.4604 35.387 51.8297C35.387 52.2085 35.4462 52.5435 35.5646 52.8347C35.6853 53.1235 35.8629 53.3508 36.0973 53.5165C36.334 53.6799 36.6276 53.7615 36.9779 53.7615ZM40.8984 54.5996V49.1451H41.7365V54.5996H40.8984ZM41.3245 48.236C41.1612 48.236 41.0203 48.1803 40.9019 48.0691C40.7859 47.9578 40.7279 47.824 40.7279 47.6678C40.7279 47.5115 40.7859 47.3778 40.9019 47.2665C41.0203 47.1552 41.1612 47.0996 41.3245 47.0996C41.4879 47.0996 41.6276 47.1552 41.7436 47.2665C41.8619 47.3778 41.9211 47.5115 41.9211 47.6678C41.9211 47.824 41.8619 47.9578 41.7436 48.0691C41.6276 48.1803 41.4879 48.236 41.3245 48.236ZM45.4873 54.7132C44.9949 54.7132 44.5629 54.5961 44.1912 54.3617C43.8219 54.1273 43.533 53.7994 43.3247 53.378C43.1187 52.9566 43.0158 52.4642 43.0158 51.9007C43.0158 51.3326 43.1187 50.8366 43.3247 50.4128C43.533 49.9891 43.8219 49.66 44.1912 49.4256C44.5629 49.1912 44.9949 49.074 45.4873 49.074C45.9798 49.074 46.4106 49.1912 46.78 49.4256C47.1516 49.66 47.4405 49.9891 47.6464 50.4128C47.8548 50.8366 47.9589 51.3326 47.9589 51.9007C47.9589 52.4642 47.8548 52.9566 47.6464 53.378C47.4405 53.7994 47.1516 54.1273 46.78 54.3617C46.4106 54.5961 45.9798 54.7132 45.4873 54.7132ZM45.4873 53.9604C45.8614 53.9604 46.1692 53.8645 46.4106 53.6728C46.6521 53.481 46.8309 53.2289 46.9469 52.9164C47.0629 52.6039 47.1209 52.2653 47.1209 51.9007C47.1209 51.5362 47.0629 51.1964 46.9469 50.8816C46.8309 50.5667 46.6521 50.3122 46.4106 50.1181C46.1692 49.9239 45.8614 49.8269 45.4873 49.8269C45.1133 49.8269 44.8055 49.9239 44.5641 50.1181C44.3226 50.3122 44.1438 50.5667 44.0278 50.8816C43.9118 51.1964 43.8538 51.5362 43.8538 51.9007C43.8538 52.2653 43.9118 52.6039 44.0278 52.9164C44.1438 53.2289 44.3226 53.481 44.5641 53.6728C44.8055 53.8645 45.1133 53.9604 45.4873 53.9604ZM50.0763 51.3184V54.5996H49.2382V49.1451H50.0479V49.9973H50.1189C50.2468 49.7203 50.4409 49.4978 50.7013 49.3297C50.9617 49.1593 51.2979 49.074 51.7098 49.074C52.0791 49.074 52.4023 49.1498 52.6793 49.3013C52.9563 49.4505 53.1717 49.6777 53.3256 49.9831C53.4795 50.2862 53.5564 50.6697 53.5564 51.1337V54.5996H52.7184V51.1905C52.7184 50.762 52.6071 50.4282 52.3845 50.1891C52.162 49.9476 51.8566 49.8269 51.4684 49.8269C51.2008 49.8269 50.9617 49.8849 50.751 50.0009C50.5427 50.1169 50.3782 50.2862 50.2574 50.5087C50.1367 50.7312 50.0763 51.0011 50.0763 51.3184Z" fill="#202020"/>
</g>
<defs>
<filter id="filter0_d_2808_462" x="9.72748e-05" y="-0.000391006" width="84.2" height="84.2" filterUnits="userSpaceOnUse" color-interpolation-filters="sRGB">
<feFlood flood-opacity="0" result="BackgroundImageFix"/>
<feColorMatrix in="SourceAlpha" type="matrix" values="0 0 0 0 0 0 0 0 0 0 0 0 0 0 0 0 0 0 127 0" result="hardAlpha"/>
<feOffset dx="4" dy="4"/>
<feGaussianBlur stdDeviation="4.3"/>
<feComposite in2="hardAlpha" operator="out"/>
<feColorMatrix type="matrix" values="0 0 0 0 0.249313 0 0 0 0 0.156506 0 0 0 0 0.156506 0 0 0 0.17 0"/>
<feBlend mode="normal" in2="BackgroundImageFix" result="effect1_dropShadow_2808_462"/>
<feBlend mode="normal" in="SourceGraphic" in2="effect1_dropShadow_2808_462" result="shape"/>
</filter>
<filter id="filter1_d_2808_462" x="9.72748e-05" y="-0.000391006" width="84.2" height="84.2" filterUnits="userSpaceOnUse" color-interpolation-filters="sRGB">
<feFlood flood-opacity="0" result="BackgroundImageFix"/>
<feColorMatrix in="SourceAlpha" type="matrix" values="0 0 0 0 0 0 0 0 0 0 0 0 0 0 0 0 0 0 127 0" result="hardAlpha"/>
<feOffset dx="4" dy="4"/>
<feGaussianBlur stdDeviation="4.3"/>
<feComposite in2="hardAlpha" operator="out"/>
<feColorMatrix type="matrix" values="0 0 0 0 0.249313 0 0 0 0 0.156506 0 0 0 0 0.156506 0 0 0 0.17 0"/>
<feBlend mode="normal" in2="BackgroundImageFix" result="effect1_dropShadow_2808_462"/>
<feBlend mode="normal" in="SourceGraphic" in2="effect1_dropShadow_2808_462" result="shape"/>
</filter>
<clipPath id="clip0_2808_462">
<rect width="24" height="24" fill="white" transform="translate(26.1001 18.5996)"/>
</clipPath>
</defs>
</svg>
