<svg width="18" height="18" viewBox="0 0 18 18" fill="none" xmlns="http://www.w3.org/2000/svg">
<path d="M5.2873 4.84688C5.49142 4.91873 5.70867 4.94556 5.92413 4.92554C6.1396 4.90552 6.34818 4.83912 6.53556 4.73089C6.72294 4.62267 6.88469 4.47518 7.00971 4.29855C7.13472 4.12192 7.22004 3.92034 7.2598 3.70763L7.4998 2.41763C8.48666 2.19282 9.51144 2.19282 10.4983 2.41763L10.7398 3.70763C10.7796 3.92034 10.8649 4.12192 10.9899 4.29855C11.1149 4.47518 11.2767 4.62267 11.464 4.73089C11.6514 4.83912 11.86 4.90552 12.0755 4.92554C12.2909 4.94556 12.5082 4.91873 12.7123 4.84688L13.9491 4.41188C14.6375 5.15346 15.1504 6.04033 15.4498 7.00688L14.4523 7.86188C14.288 8.0027 14.1561 8.17739 14.0657 8.37398C13.9753 8.57056 13.9285 8.78438 13.9285 9.00075C13.9285 9.21713 13.9753 9.43095 14.0657 9.62753C14.1561 9.82412 14.288 9.99881 14.4523 10.1396L15.4498 10.9939C15.1504 11.9604 14.6375 12.8473 13.9491 13.5889L12.7116 13.1539C12.5074 13.082 12.2902 13.0552 12.0747 13.0752C11.8593 13.0952 11.6507 13.1616 11.4633 13.2699C11.2759 13.3781 11.1142 13.5256 10.9892 13.7022C10.8641 13.8788 10.7788 14.0804 10.7391 14.2931L10.4998 15.5831C9.51295 15.8079 8.48816 15.8079 7.5013 15.5831L7.2598 14.2931C7.22004 14.0804 7.13472 13.8788 7.00971 13.7022C6.88469 13.5256 6.72294 13.3781 6.53556 13.2699C6.34818 13.1616 6.1396 13.0952 5.92413 13.0752C5.70867 13.0552 5.49142 13.082 5.2873 13.1539L4.05055 13.5889C3.36212 12.8473 2.84923 11.9604 2.5498 10.9939L3.5473 10.1389C3.71146 9.99806 3.84323 9.82341 3.93356 9.6269C4.0239 9.43038 4.07067 9.21666 4.07067 9.00038C4.07067 8.7841 4.0239 8.57037 3.93356 8.37386C3.84323 8.17735 3.71146 8.0027 3.5473 7.86188L2.5498 7.00688C2.84901 6.0404 3.36164 5.15353 4.0498 4.41188L5.2873 4.84688ZM8.9998 6.75038C9.59654 6.75038 10.1688 6.98743 10.5908 7.40939C11.0128 7.83135 11.2498 8.40364 11.2498 9.00038C11.2498 9.59712 11.0128 10.1694 10.5908 10.5914C10.1688 11.0133 9.59654 11.2504 8.9998 11.2504C8.40307 11.2504 7.83077 11.0133 7.40881 10.5914C6.98686 10.1694 6.7498 9.59712 6.7498 9.00038C6.7498 8.40364 6.98686 7.83135 7.40881 7.40939C7.83077 6.98743 8.40307 6.75038 8.9998 6.75038Z" stroke="black" stroke-width="1.2" stroke-linecap="round" stroke-linejoin="round"/>
</svg>
