<svg width="59" height="59" viewBox="0 0 59 59" fill="none" xmlns="http://www.w3.org/2000/svg">
<g filter="url(#filter0_d_3763_14882)">
<rect x="4.3999" y="2.40039" width="50" height="50" rx="25" fill="#FC6340" shape-rendering="crispEdges"/>
<rect x="4.8999" y="2.90039" width="49" height="49" rx="24.5" stroke="#B93939" stroke-opacity="0.55" shape-rendering="crispEdges"/>
<path d="M32.9038 18.8484C33.576 18.1918 34.4798 17.8266 35.4194 17.8321C36.359 17.8376 37.2586 18.2132 37.923 18.8777C38.5874 19.5421 38.9631 20.4416 38.9686 21.3812C38.9741 22.3208 38.6089 23.2247 37.9522 23.8968L37.1482 24.7008L37.5514 25.104C38.0014 25.5541 38.2541 26.1644 38.2541 26.8008C38.2541 27.4372 38.0014 28.0476 37.5514 28.4976L36.4234 29.6256C36.3108 29.7381 36.158 29.8013 35.9988 29.8012C35.8396 29.8011 35.687 29.7377 35.5744 29.625C35.4619 29.5124 35.3988 29.3596 35.3989 29.2004C35.399 29.0412 35.4624 28.8885 35.575 28.776L36.703 27.6492C36.928 27.4242 37.0544 27.119 37.0544 26.8008C37.0544 26.4826 36.928 26.1775 36.703 25.9524L36.2998 25.5492L26.7238 35.1264C26.3181 35.5341 25.8036 35.8165 25.2418 35.94L20.5306 36.9876C20.432 37.0097 20.3294 37.0064 20.2324 36.9782C20.1353 36.95 20.047 36.8978 19.9755 36.8263C19.9041 36.7549 19.8518 36.6665 19.8236 36.5695C19.7954 36.4724 19.7922 36.3699 19.8142 36.2712L20.8678 31.5312C20.9878 30.9888 21.2614 30.4908 21.6538 30.0984L32.9038 18.8484Z" fill="white"/>
</g>
<defs>
<filter id="filter0_d_3763_14882" x="-9.77516e-05" y="0.00039053" width="58.8" height="58.8" filterUnits="userSpaceOnUse" color-interpolation-filters="sRGB">
<feFlood flood-opacity="0" result="BackgroundImageFix"/>
<feColorMatrix in="SourceAlpha" type="matrix" values="0 0 0 0 0 0 0 0 0 0 0 0 0 0 0 0 0 0 127 0" result="hardAlpha"/>
<feOffset dy="2"/>
<feGaussianBlur stdDeviation="2.2"/>
<feComposite in2="hardAlpha" operator="out"/>
<feColorMatrix type="matrix" values="0 0 0 0 0 0 0 0 0 0 0 0 0 0 0 0 0 0 0.06 0"/>
<feBlend mode="normal" in2="BackgroundImageFix" result="effect1_dropShadow_3763_14882"/>
<feBlend mode="normal" in="SourceGraphic" in2="effect1_dropShadow_3763_14882" result="shape"/>
</filter>
</defs>
</svg>
